<svg xmlns="http://www.w3.org/2000/svg" xmlns:xlink="http://www.w3.org/1999/xlink" viewBox="0 0 64 64"><defs><path id="a" opacity="1" d="M0 0h64v64H0z"/><mask id="b" maskUnits="userSpaceOnUse" maskContentUnits="userSpaceOnUse"><path d="M0 0h64v64H0z"/><use xlink:href="#a" fill="#fff"/></mask></defs><g mask="url(#b)"><rect fill="#003274" width="64" height="64" rx="0" ry="0"/><path fill="#FFF" fill-rule="evenodd" d="M8.09 30.438c.41-.742 1.177-1.203 2.227-1.203 1.638 0 2.79 1.357 2.765 3.354 0 2.355-1.485 3.507-2.944 3.507a2.43 2.43 0 0 1-2.202-1.229H7.91l-.076 1.075H5.81V35.2l1.05-.102c.025-.282.025-7.962.025-7.962l-1.05-.102v-.743h2.228l-.026.026h.026v4.121h.026Zm.025 3.303a1.837 1.837 0 0 0 1.792 1.382c1.255 0 1.997-1.024 1.997-2.509 0-1.305-.691-2.432-1.971-2.432a1.908 1.908 0 0 0-1.792 1.46c-.05.166-.077.338-.077.512v1.152c.004.146.022.291.051.435Zm8.039-7.424H13.9v.717l1.05.102v7.962l-1.05.076v.743h3.302v-.743l-1.05-.076v-8.781Zm9.753 6.451c0-1.997 1.152-3.533 3.072-3.533 2.15 0 2.714 1.869 2.74 3.072a3.79 3.79 0 0 1-.052.563H27.06c.026 1.613 1.05 2.279 2.253 2.279a4.03 4.03 0 0 0 1.818-.333l.204.845a5.427 5.427 0 0 1-2.201.41c-2.023 0-3.226-1.306-3.226-3.303ZM27.06 32h3.482c0-.742-.307-1.92-1.664-1.92-1.203 0-1.715 1.1-1.818 1.92Zm8.422.128c-.845-.333-1.23-.589-1.23-1.126 0-.487.385-.896 1.076-.896a2.38 2.38 0 0 1 1.331.384l.282-.87a3.19 3.19 0 0 0-1.587-.41c-1.383 0-2.253.87-2.253 1.92 0 .793.563 1.433 1.74 1.843.871.333 1.204.614 1.204 1.203 0 .563-.41.973-1.255.973a3.456 3.456 0 0 1-1.587-.461l-.281.896a3.86 3.86 0 0 0 1.843.46c1.536 0 2.432-.818 2.432-1.97 0-.948-.615-1.536-1.715-1.946Zm4.249-5.35a.721.721 0 0 0-.742.716v.026a.71.71 0 0 0 .665.742h.052a.721.721 0 0 0 .742-.716.744.744 0 0 0-.717-.768Zm7.194 3.584h.025v-1.024H48c-.026.46-.051.998-.051 1.792v3.814c0 1.51-.307 2.406-.922 2.995a3.638 3.638 0 0 1-2.406.794 4.045 4.045 0 0 1-2.176-.538l.307-.921a3.69 3.69 0 0 0 1.92.537c1.229 0 2.125-.64 2.125-2.304v-.717h-.026a2.274 2.274 0 0 1-2.073 1.101c-1.639 0-2.79-1.382-2.79-3.2 0-2.201 1.458-3.456 2.969-3.456a2.182 2.182 0 0 1 2.048 1.127Zm-.23 3.404a1.86 1.86 0 0 0 .102-.64l-.026-1.152a1.95 1.95 0 0 0-.077-.537 1.7 1.7 0 0 0-1.664-1.28c-1.126 0-1.945.973-1.945 2.483 0 1.28.665 2.355 1.945 2.355a1.76 1.76 0 0 0 1.664-1.229Zm9.471-1.74c0-2.253-1.408-2.79-2.304-2.79a2.419 2.419 0 0 0-2.176 1.228h-.025l-.077-1.075H49.51v.742l1.05.103c0 .281.026.588.026.947v3.942l-1.05.103v.742h3.302v-.742l-1.05-.103v-3.097c.001-.19.027-.38.078-.564a1.723 1.723 0 0 1 1.587-1.228c1.126 0 1.51.87 1.51 1.945v2.944l-1.05.103v.742h3.277v-.742l-1.05-.103.026-3.097Zm-18.073-2.663v.743l1.05.102v5.709h1.203v-6.554h-2.253Zm-13.85 5.735v-5.735h-2.227v.743l1.024.102v3.174a1.72 1.72 0 0 1-.102.615 1.757 1.757 0 0 1-1.562 1.1c-1.075 0-1.46-.844-1.46-2.099v-3.61h-2.252v.743l1.05.103v2.995c0 2.278 1.228 2.867 2.252 2.867a2.419 2.419 0 0 0 2.176-1.229h.026l.077 1.075h1.843V35.2l-.845-.102Zm31.949-7.066c0-.862.7-1.562 1.562-1.562a1.568 1.568 0 0 1 1.107 2.67 1.552 1.552 0 0 1-1.107.454c-.863 0-1.562-.7-1.562-1.562Zm.282.026c0 .707.573 1.28 1.28 1.28a1.3 1.3 0 0 0 1.28-1.28 1.28 1.28 0 1 0-2.56 0Zm1.92-.359c0-.333-.23-.486-.615-.486h-.589v1.664h.282v-.64h.282l.384.665h.307l-.384-.69a.5.5 0 0 0 .333-.513Zm-.922-.256v.512h.307c.23 0 .359-.051.359-.256 0-.205-.128-.256-.359-.256h-.307Z"/></g></svg>