<svg aria-hidden="true" id="Logo_150x150" style="enable-background:new 0 0 850.4 850.4;" version="1.1" viewBox="212.6 212.6 425.2 425.2" x="0px" xml:space="preserve" xmlns="http://www.w3.org/2000/svg" xmlns:xlink="http://www.w3.org/1999/xlink" y="0px">
<g>
<rect fill="none" height="425.2" width="425.2" x="212.6" y="212.6"></rect>
<g>
<path d="M275.3,575.2c45.6,45.6,102.6,62.6,151.1,62.6c59.1,0,118.6-23.9,155.6-66.4c37-42.5,55.9-96,55.9-171.8v-187
			    h-187c-77.1,0-126.4,23.6-152.6,41.1c-27.1,18.2-75.2,66.9-84.3,146.1C206.8,462.2,227.3,527.3,275.3,575.2" fill="#00A687"></path>
<g>
<path d="M352.4,409.2c6.1-7.3,9.2-17.4,9.2-30.3c0-12.7-3-22.6-9-29.7c-6-7.1-14.5-10.6-25.5-10.6
              c-7.2,0-13.5,1.6-18.8,4.8c-5.3,3.2-9.4,7.9-12.4,14c-2.9,6.2-4.4,13.4-4.4,21.6c0,8.3,1.3,15.6,4,21.8c2.7,6.2,6.6,11,11.7,14.3
              c5.2,3.3,11.5,5,19,5C337.5,420.1,346.2,416.5,352.4,409.2z M312.8,399.9c-3.2-5-4.9-12-4.9-20.9c0-8.8,1.6-15.7,4.9-20.4
              c3.2-4.8,8-7.2,14.2-7.2c5.9,0,10.5,2.4,13.6,7.2c3.1,4.8,4.7,11.6,4.7,20.4c0,9-1.6,16-4.8,20.9c-3.2,5-7.8,7.5-13.8,7.5
              C320.6,407.4,316,404.9,312.8,399.9z" fill="#FFFFFF"></path>
<path d="M425.5,416.2c0-0.6,0.1-1.3,0.1-2.2c0-2.6-0.8-4.7-2.5-6.1c-1.7-1.4-4-2.2-7.1-2.2h-24.7v-21.5h24.5v-12.4
              h-24.5v-19.2H414c3.5,0,6.1-0.6,7.6-1.9c1.5-1.2,2.3-3.3,2.3-6.3c0-1.7-0.1-3.1-0.3-4.3h-48.2v78h50.1
              C425.4,417.4,425.5,416.8,425.5,416.2z" fill="#FFFFFF"></path>
<path d="M452.5 378.6 c -1.5 4.4 2.2 8.2 5.7 12.7 l 17 22.1 c 3.1 4 7.2 6.1 12.4 6.1 c 3.1 0 6.1 -0.9
                 9.1 -2.7 l -28.8 -39.2 l 25.5 -34.3 c -1.1 -1.1 -2.4 -1.9 -4.1 -2.6 c -1.7 -0.6 -3.4 -0.9 -5.3 -0.9 c -2.2 0 -4.1 0.5
                 -5.8 1.5 c -1.7 1 -3.5 2.6 -5.1 4.8 l -15.8 20.9 c -1.5 2 -2.7 3.8 -3.4 5.4 c -0.7 1.6 -1.9 3.6 -1.3 4.8 v -28.4 c 0
                 -6 -3.4 -9.1 -10.3 -9.1 c -1.2 0 -3.1 0.2 -5.6 0.6 v 77.8 h 15.8 V 378.6 z" fill="#FFFFFF"></path>
<path d="M559.6,349.2c-6-7.1-14.5-10.6-25.5-10.6c-7.2,0-13.5,1.6-18.8,4.8c-5.3,3.2-9.4,7.9-12.4,14
              c-2.9,6.2-4.4,13.4-4.4,21.6c0,8.3,1.3,15.6,4,21.8c2.7,6.2,6.6,11,11.7,14.3c5.2,3.3,11.5,5,19,5c11.3,0,20.1-3.6,26.2-10.9
              c6.1-7.3,9.2-17.4,9.2-30.3C568.5,366.2,565.6,356.3,559.6,349.2z M547.4,400c-3.2,5-7.8,7.5-13.8,7.5c-6,0-10.6-2.5-13.9-7.5
              c-3.2-5-4.9-12-4.9-20.9c0-8.8,1.6-15.7,4.9-20.4c3.2-4.8,8-7.2,14.2-7.2c5.9,0,10.5,2.4,13.6,7.2c3.1,4.8,4.7,11.6,4.7,20.4
              C552.2,388,550.6,395,547.4,400z" fill="#FFFFFF"></path>
</g>
<path d="M540.8,446c-10.8,0-19.5,8.8-19.5,19.7s8.8,19.7,19.5,19.7c10.8,0,19.6-8.8,19.6-19.7S551.6,446,540.8,446z
			        M540.8,480.8c-8.3,0-15-6.8-15-15.1c0-8.3,6.7-15.1,15-15.1c8.3,0,15,6.8,15,15.1C555.9,474,549.1,480.8,540.8,480.8z" fill="#FFFFFF"></path>
<path d="M545.7,466c0.4-0.3,0.8-0.7,1.2-1.2c0.4-0.5,0.6-1,0.8-1.6c0.2-0.6,0.3-1.3,0.3-2.1c0-1.9-0.6-3.3-1.9-4.3
              c-1.3-0.9-3.3-1.4-6.1-1.4c-0.7,0-1.5,0-2.4,0.1c-0.9,0.1-1.8,0.1-2.7,0.2v19.2h4v-7.3h1.6l3.3,5.6c0.4,0.7,0.8,1.2,1.3,1.5
              c0.5,0.3,1.1,0.5,1.8,0.5c0.4,0,0.7-0.1,1.2-0.1c0.4-0.1,0.8-0.2,1.1-0.4l-4.8-8C544.8,466.6,545.3,466.3,545.7,466z M542.9,464.1
              c-0.7,0.5-1.6,0.8-2.7,0.8h-1.3v-6.7c0.2,0,0.4,0,0.6-0.1c0.3,0,0.5,0,0.9,0c1.1,0,1.9,0.2,2.6,0.7c0.6,0.5,0.9,1.3,0.9,2.5
              C543.9,462.7,543.5,463.5,542.9,464.1z" fill="#FFFFFF"></path>
<path d="M330.8,446.5c-3,0-5.4,0.8-7.2,2.3c-1.8,1.5-2.7,3.6-2.7,6.1c0,1.7,0.1,3.3,0.3,4.7h24.2v64.9h16v-64.9H376
		        	c3,0,5.3-0.7,7-2.2c1.7-1.4,2.5-3.4,2.5-5.9c0-1.7-0.1-3.4-0.3-5H330.8z" fill="#FFFFFF"></path>
<path d="M435.5,512.1h-24.7v-21.5h24.5v-12.4h-24.5v-19.2h22.8c3.5,0,6.1-0.6,7.6-1.9c1.5-1.2,2.3-3.3,2.3-6.3
              c0-1.7-0.1-3.1-0.3-4.3h-48.2v78h50.1c0.1-0.7,0.1-1.3,0.2-1.9c0-0.6,0.1-1.3,0.1-2.2c0-2.6-0.8-4.7-2.5-6.1
              C440.9,512.8,438.6,512.1,435.5,512.1z" fill="#FFFFFF"></path>
<path d="M515.8,448.3c-2.9-1.5-5.7-2.3-8.4-2.3c-2.5,0-4.5,0.5-6.1,1.5c-1.6,1-3.1,2.8-4.7,5.5l-11.4,19.8L474,451.7
              c-1.9-3.8-5-5.7-9.3-5.7c-2.8,0-6.2,0.9-10.1,2.6l20.3,37l-22.9,38.9h17.3l14.8-25.7l11.9,19.9c1.5,2.6,3.2,4.5,4.9,5.5
              c1.7,1,4,1.6,6.7,1.6c2.8,0,5.9-0.6,9.1-1.7l-22.6-39L515.8,448.3z" fill="#FFFFFF"></path>
</g>
</g>
</svg>