<?xml version="1.0" encoding="UTF-8"?>
<!DOCTYPE svg PUBLIC "-//W3C//DTD SVG 1.1//EN" "http://www.w3.org/Graphics/SVG/1.1/DTD/svg11.dtd">
<!-- Creator: CorelDRAW X7 -->
<svg xmlns="http://www.w3.org/2000/svg" xml:space="preserve" width="60mm" height="7.25mm" version="1.1" style="shape-rendering:geometricPrecision; text-rendering:geometricPrecision; image-rendering:optimizeQuality; fill-rule:evenodd; clip-rule:evenodd"
viewBox="0 0 6000 725"
 xmlns:xlink="http://www.w3.org/1999/xlink">
 <defs>
  <style type="text/css">
   <![CDATA[
    .fil0 {fill:#4F67B1}
   ]]>
  </style>
 </defs>
 <g id="Warstwa_x0020_1">
  <metadata id="CorelCorpID_0Corel-Layer"/>
  <g id="_1697702210720">
   <path class="fil0" d="M326 199c0,27 -4,51 -13,73 -9,21 -21,39 -37,54 -17,15 -37,27 -60,35 -24,8 -52,12 -85,12l-60 0 0 192c0,2 -1,4 -2,5 -1,2 -3,3 -6,4 -3,1 -6,2 -11,3 -4,1 -10,1 -17,1 -7,0 -12,0 -17,-1 -4,-1 -8,-2 -11,-3 -2,-1 -4,-2 -5,-4 -1,-1 -2,-3 -2,-5l0 -491c0,-11 3,-19 9,-23 5,-5 12,-7 19,-7l114 0c11,0 22,0 33,1 10,1 23,3 37,6 14,4 29,9 44,18 15,9 27,19 38,32 10,13 18,27 24,44 6,16 8,35 8,54zm-74 6c0,-22 -4,-40 -12,-54 -8,-15 -18,-26 -30,-33 -12,-7 -24,-11 -37,-13 -12,-2 -25,-3 -37,-3l-65 0 0 213 63 0c22,0 40,-2 54,-8 14,-5 26,-13 35,-23 10,-9 17,-21 22,-35 5,-13 7,-28 7,-44zm391 14c0,6 0,11 0,15 -1,4 -1,8 -2,10 -1,2 -2,4 -3,5 -1,2 -3,2 -5,2 -2,0 -5,0 -8,-2 -3,-1 -7,-2 -11,-3 -4,-2 -8,-3 -13,-4 -5,-1 -10,-1 -16,-1 -7,0 -14,1 -20,4 -7,2 -14,7 -21,13 -7,7 -15,15 -23,25 -8,11 -16,24 -26,39l0 243c0,2 0,4 -2,6 -1,1 -2,2 -5,4 -2,1 -6,1 -10,2 -5,1 -10,1 -17,1 -7,0 -12,0 -17,-1 -4,-1 -8,-1 -10,-2 -3,-2 -5,-3 -6,-4 -1,-2 -1,-4 -1,-6l0 -370c0,-2 0,-4 1,-5 1,-2 3,-3 5,-4 3,-2 6,-2 10,-3 3,0 9,0 15,0 6,0 11,0 15,0 4,1 7,1 9,3 2,1 4,2 5,4 1,1 2,3 2,5l0 54c10,-15 19,-27 28,-36 9,-9 17,-17 25,-22 8,-6 16,-9 24,-11 8,-2 15,-3 23,-3 4,0 8,0 13,0 4,1 9,1 14,2 5,2 9,3 13,4 4,2 7,3 8,4 2,2 3,3 4,4 0,1 1,3 1,5 1,2 1,5 1,8 0,4 0,9 0,15zm381 145c0,11 -3,18 -8,23 -6,4 -12,7 -19,7l-242 0c0,20 2,39 6,55 4,17 11,31 20,43 10,11 22,20 38,27 15,6 34,9 56,9 18,0 33,-1 47,-4 14,-3 25,-6 35,-10 10,-3 19,-6 25,-9 7,-3 11,-5 15,-5 2,0 3,1 5,2 1,1 3,2 3,4 1,2 2,5 2,8 1,4 1,8 1,13 0,3 0,6 -1,9 0,2 0,5 -1,7 0,2 -1,4 -2,5 -1,2 -2,3 -3,5 -2,1 -6,4 -14,7 -7,4 -17,7 -28,10 -12,3 -26,6 -41,9 -16,3 -32,4 -50,4 -30,0 -56,-4 -79,-13 -23,-8 -42,-21 -58,-38 -16,-16 -27,-37 -35,-63 -8,-25 -12,-54 -12,-87 0,-32 4,-61 12,-86 8,-25 20,-47 36,-65 15,-17 34,-31 56,-40 22,-10 46,-14 73,-14 29,0 54,4 74,14 21,9 37,22 51,37 13,16 22,34 28,56 7,21 10,44 10,68l0 12zm-68 -20c0,-36 -7,-64 -24,-84 -17,-20 -41,-30 -74,-30 -17,0 -31,3 -44,9 -13,6 -23,15 -32,25 -8,11 -15,23 -20,37 -4,13 -7,28 -7,43l201 0zm399 202c0,6 0,10 -1,14 -1,4 -2,7 -3,9 -1,2 -3,4 -5,5 -2,1 -4,1 -6,1l-228 0c-5,0 -10,-2 -14,-5 -4,-4 -5,-11 -5,-20l0 -14c0,-4 0,-7 0,-10 1,-3 2,-6 3,-9 1,-3 2,-6 4,-10 2,-3 5,-7 7,-11l164 -254 -159 0c-4,0 -8,-2 -10,-6 -3,-5 -4,-12 -4,-23 0,-5 0,-9 1,-13 0,-3 1,-6 2,-9 2,-2 3,-4 5,-5 2,-1 4,-1 6,-1l213 0c2,0 5,0 8,1 2,1 4,2 6,4 1,2 3,5 3,8 1,3 2,7 2,11l0 13c0,4 0,8 -1,11 -1,3 -1,7 -2,10 -2,3 -3,6 -5,10 -2,3 -4,7 -7,12l-162 253 173 0c2,0 4,1 6,2 2,0 3,2 5,4 1,3 2,5 3,9 1,4 1,8 1,13zm392 -182c0,11 -2,18 -8,23 -5,4 -11,7 -18,7l-243 0c0,20 2,39 6,55 4,17 11,31 21,43 9,11 22,20 37,27 16,6 34,9 57,9 17,0 33,-1 46,-4 14,-3 26,-6 36,-10 10,-3 18,-6 25,-9 6,-3 11,-5 14,-5 2,0 4,1 5,2 2,1 3,2 4,4 1,2 1,5 2,8 0,4 0,8 0,13 0,3 0,6 0,9 0,2 -1,5 -1,7 0,2 -1,4 -2,5 -1,2 -2,3 -4,5 -1,1 -6,4 -13,7 -8,4 -17,7 -29,10 -12,3 -25,6 -41,9 -15,3 -31,4 -49,4 -30,0 -57,-4 -80,-13 -23,-8 -42,-21 -57,-38 -16,-16 -28,-37 -36,-63 -8,-25 -11,-54 -11,-87 0,-32 4,-61 12,-86 8,-25 20,-47 35,-65 16,-17 35,-31 56,-40 22,-10 47,-14 74,-14 29,0 54,4 74,14 20,9 37,22 50,37 13,16 23,34 29,56 6,21 9,44 9,68l0 12zm-68 -20c1,-36 -7,-64 -23,-84 -17,-20 -42,-30 -74,-30 -17,0 -32,3 -45,9 -12,6 -23,15 -31,25 -9,11 -15,23 -20,37 -5,13 -7,28 -8,43l201 0zm490 221c0,2 0,4 -2,6 -1,1 -2,2 -5,4 -2,1 -6,1 -10,2 -5,1 -10,1 -17,1 -7,0 -12,0 -17,-1 -4,-1 -7,-1 -10,-2 -3,-2 -4,-3 -5,-4 -1,-2 -2,-4 -2,-6l0 -217c0,-21 -2,-38 -5,-50 -3,-13 -8,-24 -14,-34 -7,-9 -15,-16 -24,-21 -10,-5 -22,-7 -35,-7 -17,0 -34,6 -51,18 -17,12 -34,29 -53,53l0 258c0,2 0,4 -1,6 -1,1 -3,2 -6,4 -2,1 -6,1 -10,2 -4,1 -10,1 -17,1 -7,0 -12,0 -16,-1 -5,-1 -8,-1 -11,-2 -3,-2 -4,-3 -5,-4 -1,-2 -2,-4 -2,-6l0 -370c0,-2 1,-4 1,-5 1,-2 3,-3 5,-4 3,-2 6,-2 10,-3 4,0 9,0 15,0 6,0 11,0 15,0 4,1 7,1 10,3 2,1 3,2 4,4 1,1 2,3 2,5l0 49c20,-23 41,-40 62,-51 20,-11 41,-16 62,-16 25,0 45,4 62,12 17,9 31,20 41,34 10,14 18,30 22,49 5,19 7,41 7,67l0 226zm308 -27c0,8 0,14 -2,19 -1,4 -2,8 -5,10 -2,2 -5,4 -9,6 -5,2 -10,3 -15,5 -6,1 -12,2 -18,3 -6,1 -13,1 -19,1 -19,0 -36,-2 -49,-8 -14,-5 -25,-12 -34,-23 -8,-10 -15,-23 -19,-39 -4,-15 -6,-34 -6,-55l0 -216 -52 0c-4,0 -7,-2 -10,-6 -2,-5 -3,-12 -3,-22 0,-5 0,-9 1,-13 0,-3 1,-6 2,-9 1,-2 3,-4 5,-5 2,-1 3,-1 6,-1l51 0 0 -88c0,-2 1,-3 2,-5 1,-2 3,-3 5,-4 3,-2 6,-2 11,-3 4,-1 9,-1 16,-1 7,0 13,0 17,1 5,1 8,1 10,3 3,1 5,2 6,4 1,2 1,3 1,5l0 88 95 0c2,0 4,0 5,1 2,1 3,3 5,5 1,3 2,6 2,9 1,4 1,8 1,13 0,10 -1,17 -4,22 -2,4 -5,6 -9,6l-95 0 0 206c0,25 4,45 12,58 7,13 21,19 40,19 6,0 12,-1 17,-2 4,-1 9,-2 13,-4 3,-1 7,-2 9,-4 3,-1 6,-2 8,-2 1,0 2,1 4,1 1,1 2,2 2,4 1,2 2,5 2,8 1,3 1,8 1,13zm406 27c0,2 0,4 -1,6 -1,1 -3,2 -5,4 -3,1 -6,1 -10,2 -4,1 -9,1 -15,1 -6,0 -11,0 -15,-1 -4,-1 -7,-1 -9,-2 -3,-2 -4,-3 -5,-4 -1,-2 -1,-4 -1,-6l0 -49c-21,23 -42,40 -63,51 -20,11 -41,16 -62,16 -25,0 -46,-4 -62,-12 -17,-9 -31,-20 -41,-34 -11,-14 -18,-30 -23,-49 -4,-19 -6,-42 -6,-69l0 -224c0,-2 0,-4 1,-5 1,-2 3,-3 6,-4 2,-2 6,-2 10,-3 5,0 10,0 17,0 6,0 12,0 16,0 4,1 8,1 11,3 2,1 4,2 5,4 1,1 2,3 2,5l0 216c0,21 1,39 4,52 4,13 8,24 15,33 6,9 14,16 24,21 10,5 22,8 35,8 17,0 34,-6 51,-18 16,-12 34,-30 53,-53l0 -259c0,-2 1,-4 2,-5 1,-2 2,-3 5,-4 3,-2 6,-2 11,-3 4,0 9,0 16,0 7,0 12,0 17,0 4,1 8,1 10,3 2,1 4,2 6,4 1,1 1,3 1,5l0 370zm202 16c0,28 -2,50 -7,67 -4,16 -10,31 -19,42 -8,12 -20,20 -33,26 -14,6 -31,9 -50,9 -9,0 -16,-1 -22,-2 -6,-1 -11,-2 -14,-3 -4,-2 -6,-3 -7,-5 -1,-2 -2,-4 -3,-6 0,-3 -1,-5 -1,-7 0,-3 0,-6 0,-10 0,-4 0,-9 1,-12 0,-4 1,-7 2,-9 1,-2 2,-4 3,-5 1,-1 3,-1 5,-1 1,0 4,0 9,1 5,1 11,1 17,1 9,0 17,-1 23,-4 6,-3 12,-7 16,-13 4,-7 7,-15 9,-24 2,-10 2,-25 2,-45l0 -386c0,-2 1,-4 2,-5 1,-2 3,-3 6,-4 2,-1 6,-2 10,-3 5,0 10,0 17,0 6,0 12,0 16,0 4,1 8,2 10,3 3,1 5,2 6,4 1,1 2,3 2,5l0 386zm7 -510c0,16 -3,26 -9,32 -6,6 -17,9 -33,9 -16,0 -27,-3 -33,-9 -5,-5 -8,-16 -8,-31 0,-16 3,-27 9,-33 6,-6 17,-9 33,-9 16,0 27,3 33,9 5,5 8,16 8,32zm825 123c0,2 0,5 -1,7 0,3 -1,7 -3,11l-108 351c-1,3 -3,6 -4,7 -2,2 -5,4 -8,5 -3,1 -7,2 -13,2 -5,1 -12,1 -20,1 -9,0 -16,0 -22,-1 -5,-1 -10,-1 -13,-2 -4,-2 -6,-3 -8,-5 -2,-2 -3,-4 -4,-7l-77 -268 -1 -4 -1 4 -72 268c-1,3 -2,6 -4,7 -1,2 -4,4 -8,5 -3,1 -8,2 -13,2 -6,1 -13,1 -21,1 -9,0 -15,0 -21,-1 -5,-1 -10,-1 -13,-2 -3,-2 -6,-3 -8,-5 -1,-2 -3,-4 -3,-7l-108 -351c-2,-4 -3,-8 -3,-11 -1,-2 -1,-5 -1,-7 0,-2 1,-4 2,-6 1,-1 3,-2 5,-3 3,-1 6,-2 11,-2 4,0 9,0 16,0 7,0 13,0 18,0 5,1 8,1 11,2 2,1 4,3 5,4 1,2 2,4 3,7l89 305 1 4 1 -4 82 -305c0,-3 1,-5 2,-7 1,-1 3,-3 6,-4 2,-1 6,-1 10,-2 4,0 10,0 16,0 7,0 12,0 17,0 4,1 7,1 10,2 2,1 4,2 5,4 1,2 2,4 3,6l88 306 1 4 0 -4 88 -305c0,-3 1,-5 3,-7 1,-1 3,-3 5,-4 3,-1 6,-1 11,-2 5,0 10,0 17,0 7,0 12,0 16,0 4,0 7,1 10,2 2,1 4,2 5,4 1,1 1,3 1,5zm354 371c0,4 -2,6 -4,8 -2,2 -5,3 -9,4 -4,0 -9,1 -17,1 -7,0 -12,-1 -17,-1 -4,-1 -7,-2 -9,-4 -2,-2 -3,-4 -3,-8l0 -37c-16,18 -34,31 -54,41 -20,9 -41,14 -63,14 -19,0 -37,-3 -53,-8 -15,-5 -29,-12 -40,-22 -11,-9 -20,-21 -26,-35 -6,-14 -9,-30 -9,-48 0,-21 4,-39 13,-54 8,-15 20,-28 36,-38 16,-10 36,-18 59,-23 23,-5 48,-8 77,-8l51 0 0 -29c0,-14 -1,-26 -4,-37 -3,-11 -8,-20 -15,-28 -7,-7 -15,-12 -26,-16 -11,-4 -24,-6 -39,-6 -17,0 -32,2 -45,6 -13,4 -25,9 -35,14 -10,5 -18,9 -25,13 -7,4 -12,6 -15,6 -2,0 -4,-1 -6,-2 -1,-1 -3,-2 -4,-5 -1,-2 -2,-5 -3,-8 0,-3 -1,-7 -1,-11 0,-7 1,-12 2,-16 1,-4 3,-8 7,-12 3,-3 10,-7 19,-12 9,-5 19,-9 31,-13 12,-4 25,-8 39,-10 14,-3 28,-4 42,-4 26,0 49,3 68,9 18,6 33,15 45,26 11,12 19,26 25,44 5,17 8,37 8,60l0 249zm-68 -169l-58 0c-18,0 -34,2 -48,5 -14,3 -25,8 -34,14 -9,6 -16,13 -20,22 -4,9 -6,19 -6,30 0,19 6,34 18,46 12,11 29,17 51,17 18,0 34,-5 49,-14 16,-9 32,-23 48,-41l0 -79zm408 -177c0,6 0,11 0,15 -1,4 -1,8 -2,10 -1,2 -2,4 -3,5 -1,2 -3,2 -5,2 -2,0 -5,0 -8,-2 -3,-1 -7,-2 -11,-3 -4,-2 -8,-3 -13,-4 -5,-1 -10,-1 -16,-1 -7,0 -14,1 -20,4 -7,2 -14,7 -21,13 -7,7 -15,15 -23,25 -8,11 -16,24 -26,39l0 243c0,2 0,4 -2,6 -1,1 -2,2 -5,4 -2,1 -6,1 -10,2 -5,1 -10,1 -17,1 -7,0 -12,0 -17,-1 -4,-1 -8,-1 -10,-2 -3,-2 -5,-3 -6,-4 -1,-2 -1,-4 -1,-6l0 -370c0,-2 0,-4 1,-5 1,-2 3,-3 5,-4 3,-2 6,-2 10,-3 3,0 9,0 15,0 6,0 11,0 15,0 4,1 7,1 9,3 2,1 4,2 5,4 1,1 2,3 2,5l0 54c10,-15 19,-27 28,-36 9,-9 17,-17 25,-22 8,-6 16,-9 24,-11 8,-2 15,-3 23,-3 4,0 8,0 13,0 4,1 9,1 14,2 5,2 9,3 13,4 4,2 7,3 8,4 2,2 3,3 4,4 0,1 1,3 1,5 1,2 1,5 1,8 0,4 0,9 0,15zm269 319c0,8 -1,14 -2,19 -1,4 -2,8 -5,10 -2,2 -5,4 -9,6 -5,2 -10,3 -15,5 -6,1 -12,2 -18,3 -7,1 -13,1 -19,1 -19,0 -36,-2 -49,-8 -14,-5 -25,-12 -34,-23 -9,-10 -15,-23 -19,-39 -4,-15 -6,-34 -6,-55l0 -216 -52 0c-4,0 -7,-2 -10,-6 -2,-5 -3,-12 -3,-22 0,-5 0,-9 1,-13 0,-3 1,-6 2,-9 1,-2 3,-4 5,-5 1,-1 3,-1 6,-1l51 0 0 -88c0,-2 1,-3 2,-5 1,-2 2,-3 5,-4 3,-2 6,-2 11,-3 4,-1 9,-1 16,-1 7,0 13,0 17,1 4,1 8,1 10,3 3,1 5,2 6,4 1,2 1,3 1,5l0 88 95 0c2,0 4,0 5,1 2,1 3,3 4,5 2,3 3,6 3,9 1,4 1,8 1,13 0,10 -1,17 -4,22 -2,4 -5,6 -9,6l-95 0 0 206c0,25 4,45 12,58 7,13 20,19 40,19 6,0 12,-1 16,-2 5,-1 10,-2 14,-4 3,-1 7,-2 9,-4 3,-1 6,-2 8,-2 1,0 2,1 4,1 1,1 2,2 2,4 1,2 2,5 2,8 1,3 1,8 1,13z"/>
   <path class="fil0" d="M5305 376c0,30 -4,58 -12,83 -8,25 -20,47 -36,66 -15,18 -35,32 -59,42 -23,11 -51,16 -82,16 -30,0 -57,-5 -79,-14 -23,-9 -42,-22 -57,-39 -15,-17 -26,-38 -33,-63 -8,-25 -11,-52 -11,-84 0,-30 4,-58 11,-83 8,-25 20,-47 36,-65 15,-19 35,-33 58,-43 24,-10 51,-15 83,-15 30,0 57,4 79,13 23,9 42,22 57,40 15,17 26,38 34,62 7,25 11,53 11,84zm-71 4c0,-20 -2,-39 -5,-57 -4,-17 -10,-33 -19,-46 -8,-14 -20,-25 -34,-32 -15,-8 -33,-12 -55,-12 -20,0 -37,3 -51,11 -15,7 -27,17 -36,30 -9,13 -16,28 -21,46 -4,18 -7,37 -7,58 0,21 2,40 6,58 4,17 10,33 18,46 9,14 21,24 35,32 15,8 33,12 55,12 19,0 37,-4 51,-11 15,-7 27,-17 36,-30 9,-13 16,-28 21,-46 4,-18 6,-38 6,-59zm403 84c0,19 -3,36 -10,51 -7,14 -17,27 -30,37 -13,10 -28,18 -46,23 -18,5 -37,8 -59,8 -13,0 -25,-1 -37,-3 -12,-2 -23,-5 -32,-8 -10,-3 -18,-6 -24,-10 -7,-3 -12,-6 -15,-9 -3,-2 -5,-6 -6,-11 -2,-5 -2,-12 -2,-20 0,-6 0,-10 1,-13 0,-4 1,-7 2,-9 0,-2 2,-4 3,-5 2,-1 3,-1 5,-1 3,0 8,2 14,5 5,4 13,8 21,12 9,5 19,9 31,12 12,4 25,6 40,6 12,0 22,-1 32,-4 9,-2 17,-6 24,-11 7,-4 12,-11 16,-18 3,-7 5,-16 5,-27 0,-10 -3,-19 -8,-26 -5,-7 -12,-13 -21,-19 -9,-5 -19,-10 -30,-14 -10,-4 -22,-9 -33,-14 -12,-4 -23,-10 -34,-15 -11,-6 -21,-13 -30,-22 -9,-9 -16,-19 -21,-30 -5,-12 -8,-26 -8,-43 0,-14 3,-28 8,-41 6,-14 14,-25 26,-35 11,-10 25,-18 42,-24 17,-6 36,-9 59,-9 10,0 20,0 29,2 10,2 19,4 27,7 8,2 15,5 20,8 6,3 10,5 13,8 3,2 5,4 6,6 1,1 2,3 2,5 0,2 1,5 1,8 1,3 1,6 1,11 0,4 0,8 -1,12 0,3 -1,6 -2,8 -1,2 -2,4 -3,5 -2,1 -3,1 -5,1 -2,0 -6,-1 -11,-4 -4,-3 -10,-7 -18,-10 -7,-4 -16,-7 -26,-10 -10,-3 -21,-4 -34,-4 -12,0 -22,1 -31,4 -8,2 -15,6 -21,10 -6,5 -10,11 -13,17 -3,7 -4,14 -4,22 0,10 3,19 8,27 6,7 13,13 21,19 9,5 19,10 30,14 12,5 23,9 35,14 11,5 23,10 34,16 11,5 22,12 30,20 9,9 16,19 21,30 6,12 8,25 8,41zm-96 -449c2,-3 4,-5 6,-7 2,-2 5,-4 8,-5 3,-1 7,-2 12,-2 4,-1 10,-1 17,-1 7,0 14,0 18,1 5,1 9,3 11,5 2,1 2,3 2,6 0,2 -1,4 -4,7l-74 96c-2,2 -4,5 -6,6 -2,2 -4,3 -6,4 -3,1 -6,2 -9,2 -4,1 -9,1 -14,1 -6,0 -11,-1 -14,-1 -4,-1 -7,-2 -8,-4 -2,-1 -2,-3 -2,-5 1,-2 2,-5 4,-8l59 -95zm459 493c0,5 0,9 0,12 -1,4 -1,7 -2,9 -1,2 -1,4 -2,6 -1,2 -3,5 -7,8 -3,3 -9,8 -17,13 -9,5 -18,9 -28,13 -10,4 -22,8 -34,10 -12,3 -24,4 -37,4 -27,0 -50,-4 -71,-13 -20,-9 -38,-22 -51,-39 -14,-16 -25,-37 -32,-62 -7,-24 -11,-52 -11,-84 0,-37 5,-68 13,-94 9,-26 22,-48 37,-64 16,-17 34,-29 55,-37 21,-8 43,-13 68,-13 12,0 23,2 34,4 11,2 21,5 31,8 9,4 17,8 25,13 7,4 12,9 15,12 4,3 6,6 7,8 1,2 3,4 3,6 1,3 2,6 2,9 0,4 0,8 0,13 0,10 -1,18 -3,22 -3,4 -6,6 -9,6 -5,0 -9,-2 -15,-6 -5,-5 -12,-10 -20,-15 -8,-6 -18,-11 -30,-15 -11,-5 -25,-7 -41,-7 -33,0 -58,12 -75,37 -18,25 -26,61 -26,109 0,24 2,45 7,63 4,17 11,32 20,44 8,12 19,21 32,27 13,6 27,9 44,9 15,0 29,-3 41,-7 12,-5 22,-11 30,-17 9,-6 16,-11 22,-16 6,-5 11,-7 14,-7 2,0 3,0 5,2 1,1 2,3 3,5 1,3 2,6 2,10 1,4 1,9 1,14zm-103 -493c2,-3 4,-5 6,-7 2,-2 5,-4 8,-5 3,-1 7,-2 12,-2 4,-1 10,-1 17,-1 7,0 14,0 18,1 5,1 8,3 10,5 2,1 3,3 3,6 0,2 -2,4 -4,7l-74 96c-2,2 -4,5 -6,6 -2,2 -4,3 -6,4 -3,1 -6,2 -9,2 -4,1 -9,1 -14,1 -6,0 -11,-1 -15,-1 -3,-1 -6,-2 -7,-4 -2,-1 -2,-3 -2,-5 1,-2 2,-5 4,-8l59 -95z"/>
  </g>
 </g>
</svg>
