<svg xmlns="http://www.w3.org/2000/svg" viewBox="0 0 8380 1270" fill="#4f67b1">
  <g transform="translate(-5 985) scale(1 -1)">
    <path d="M323 700H60C60 700 88 662 86 530L81 169C79 38 55 0 55 0H207C207 0 178 38 177 169L176 317C217 313 258 313 294 313C395 313 564 360 564 512C564 640 472 700 323 700ZM176 371 175 530C175 589 180 630 186 656C215 661 250 663 290 663C390 663 468 600 468 503C468 394 388 359 290 359C238 359 212 363 176 371Z" transform="translate(0 0)"/>
    <path d="M55 0H166C161 25 151 51 151 231V333C188 404 256 431 295 436C333 440 349 439 376 432L362 519C354 520 346 520 339 520C273 520 193 465 152 390V520L45 460C48 458 72 414 71 342L70 231C68 57 62 25 55 0Z" transform="translate(609 0)"/>
    <path d="M276 470C335 470 394 437 407 318L132 304C138 416 189 470 276 470ZM40 248C40 90 142 -12 291 -12C364 -12 449 12 503 125L500 127C446 70 387 49 326 49C199 49 137 142 132 265H502C502 434 416 520 288 520C155 520 40 407 40 248Z" transform="translate(999 0)"/>
    <path d="M85 509 73 425C156 460 230 470 324 470H385C372 451 356 432 334 403L31 4L30 0L496 -3L511 81L509 82C455 67 387 47 240 42L153 39C170 61 193 93 227 138L506 508Z" transform="translate(1537 0)"/>
    <path d="M276 470C335 470 394 437 407 318L132 304C138 416 189 470 276 470ZM40 248C40 90 142 -12 291 -12C364 -12 449 12 503 125L500 127C446 70 387 49 326 49C199 49 137 142 132 265H502C502 434 416 520 288 520C155 520 40 407 40 248Z" transform="translate(2088 0)"/>
    <path d="M55 0H166C161 25 151 51 151 231V349C189 407 252 448 313 447C391 446 430 407 430 292V231C430 51 420 25 415 0H526C519 25 511 57 511 231V299C511 460 452 521 339 521C262 521 194 466 152 406V520L45 460C48 458 72 414 71 342L70 231C68 57 62 25 55 0Z" transform="translate(2626 0)"/>
    <path d="M10 492V463L96 460V155C96 51 152 -12 241 -12C358 -12 396 74 414 115L411 116C391 94 349 48 285 48C206 48 177 95 177 205V457L363 450L372 514L177 502V632H172C139 556 80 498 10 492Z" transform="translate(3202 0)"/>
    <path d="M501 161 503 520 395 467C411 442 421 415 421 354L420 132C383 89 330 61 272 62C193 63 152 110 152 206L153 520L45 467C61 442 71 415 71 354V199C71 34 145 -12 237 -12C311 -12 376 28 420 92V-12L527 48C523 56 501 89 501 161Z" transform="translate(3626 0)"/>
    <path d="M89 342V-1C89 -158 57 -196 -25 -231L-23 -235C105 -217 169 -162 169 -40V231L170 520L59 460C62 458 89 414 89 342ZM119 597C149 597 173 621 173 651C173 681 149 705 119 705C89 705 65 681 65 651C65 621 89 597 119 597Z" transform="translate(4198 0)"/>
    <path d="M521 -4 559 -2 700 376C716 420 738 464 761 508H673C668 462 664 435 644 375L557 112L460 404C444 452 440 479 441 508H322C333 486 343 463 351 441C347 423 341 402 332 375L245 112L148 404C131 455 131 482 132 508H10C28 473 41 437 54 402L209 -4L247 -2L382 360Z" transform="translate(4634 0)"/>
    <path d="M386 -10 497 32V34C489 38 470 58 470 159V346C470 455 389 520 277 520C191 520 142 500 81 458L99 343H101C127 410 194 461 261 461C347 461 389 424 389 331V281C337 288 283 289 234 284C126 272 40 225 40 126C40 37 102 -12 187 -12C271 -12 338 36 388 110C387 0 386 -10 386 -10ZM123 150C123 198 163 265 389 254V155C343 96 294 59 224 59C159 59 123 91 123 150Z" transform="translate(5405 0)"/>
    <path d="M55 0H166C161 25 151 51 151 231V333C188 404 256 431 295 436C333 440 349 439 376 432L362 519C354 520 346 520 339 520C273 520 193 465 152 390V520L45 460C48 458 72 414 71 342L70 231C68 57 62 25 55 0Z" transform="translate(5952 0)"/>
    <path d="M10 492V463L96 460V155C96 51 152 -12 241 -12C358 -12 396 74 414 115L411 116C391 94 349 48 285 48C206 48 177 95 177 205V457L363 450L372 514L177 502V632H172C139 556 80 498 10 492Z" transform="translate(6342 0)"/>
    <path d="M280 -11C432 -11 548 112 548 274C548 421 456 519 310 519C159 519 40 395 40 234C40 96 140 -11 280 -11ZM313 39C209 39 128 143 128 277C128 393 187 468 278 468C384 468 458 370 458 229C458 113 401 39 313 39Z" transform="translate(6766 0)"/>
    <path d="M232 -12C362 -12 448 64 448 152C448 229 383 273 296 296L228 314C141 337 121 359 121 396C121 434 148 476 225 476C280 476 350 435 397 375H402L391 486C351 508 298 520 245 520C122 520 47 446 47 375C47 299 93 264 205 235L264 220C339 201 373 172 373 132C373 79 334 42 262 42C165 42 81 100 37 172L32 171L54 35C85 20 161 -12 232 -12ZM161 594 183 587C254 630 303 666 357 709L257 736C227 689 195 641 161 594Z" transform="translate(7354 0)"/>
    <path d="M450 337H453L479 451C427 501 374 520 288 520C146 520 40 391 40 248C40 88 142 -12 291 -12C359 -12 438 12 492 125L489 127C435 70 387 49 326 49C194 49 132 150 132 278C132 415 209 470 286 470C353 470 408 439 450 337ZM196 594 218 587C289 630 338 666 392 709L292 736C262 689 230 641 196 594Z" transform="translate(7843 0)"/>
  </g>
</svg>
