<?xml version="1.0" encoding="utf-8"?>
<!-- Generator: Adobe Illustrator 19.2.1, SVG Export Plug-In . SVG Version: 6.00 Build 0)  -->
<svg version="1.1" id="layer" xmlns="http://www.w3.org/2000/svg" xmlns:xlink="http://www.w3.org/1999/xlink" x="0px" y="0px"
	 viewBox="20 240 602 165"  xml:space="preserve">
<path d="M539.6,399.3l-441.6,0l0-22.3l441.6,0L539.6,399.3z M249.4,244.7l-15.5,0c0,0-14.4,32.4-17.6,39.5
	c-3.1-7-17.6-39.5-17.6-39.5h-17.6l0,120.2l20.4,0l-0.9-76.5l15.8,37.5l15.7-37.5l-0.8,76.5h20.3l0-120.3L249.4,244.7 M290.9,346.9
	c0-3.6,0-31.7,0-35.3c3.6,0,26.6,0,26.6,0l0-18.2c0,0-23,0-26.6,0c0-3.5,0-26.9,0-30.4c3.7,0,29.1,0,29.1,0l0-18.2l-2.1,0l-47.7,0
	l0,120.3l51.3,0v-18.1C321.6,346.9,294.6,346.9,290.9,346.9 M360.2,346.9c0-4.1,0-102.1,0-102.1l-2.1,0l-18.6,0l0,120.3l49.7,0
	v-18.2C389.3,346.9,363.9,346.9,360.2,346.9 M423.3,293.8c0-3.7,0-27.2,0-30.8c10.3,0.2,16,5.5,16,15
	C439.4,287.7,433.3,293.6,423.3,293.8 M424.1,346.9l-0.8,0c0-3.6,0-31.2,0-34.8c0.3,0,0.7,0,0.7,0c16.9,0,18.2,13.7,18.2,17.8
	C442.2,340.7,435.6,346.9,424.1,346.9 M445.2,300.4c9.5-6.2,14.8-14.9,14.8-24.9c0-15.1-13.4-30.8-35.8-30.8l-19.5,0h-2.1l0,120.3
	h17.6c31.5,0,42.7-18.4,42.7-35.6C462.9,316.1,456.8,306.5,445.2,300.4 M63.1,402.2c8.5-0.1,15.9-1.8,23.7-8.6l0.8-0.8l0-24.3
	l-2.9,2.5c-8.5,6.9-13.4,7.9-19.2,7.8c-13.8-0.2-20.8-17.1-20.8-57.7c0-40.7,6.5-57.3,19.8-57.7c7.3-0.2,12.3,2,17.3,5.7
	c2.4,1.8,4.1,3.8,4.1,3.8l0-24.4l-1.1-0.9c-7.1-5.3-14.7-7.5-21.3-7.6c-5.9-0.1-11.3,1.5-16.1,4.4c-16.6,10.1-26.1,37.2-26.1,77.7
	C21.4,373,36.8,402.7,63.1,402.2 M139.8,321.2c-3.1,0-10.1,0-13.2,0c0.7-3.6,4.4-24,6.6-35.9C135.4,297.2,139.2,317.6,139.8,321.2
	 M143.5,244l-1.7,0l-18.7,0L98,365l20.2,0c0,0,4.4-22.7,5-25.7c2.7,0,17.4,0,20.2,0c0.5,3,4.6,25.7,4.6,25.7l20.3,0L143.5,244
	 M611.6,316.6c1.1,0,1.8-0.6,1.8-1.4c0-0.9-0.7-1.4-2.2-1.4l-1.9,0l0,2.9C609.2,316.6,611.6,316.6,611.6,316.6z M607.1,312.1h5
	c2.5,0,3.5,1.4,3.5,3c0,1.6-1.1,2.7-2.8,2.9v0.1c0.9,0.3,1.3,0.9,2,2.1l1.5,2.5h-2.7l-0.9-1.7c-1-2.1-1.7-2.6-2.9-2.6l-0.5,0l0,4.3
	l-2.1,0C607.1,322.7,607.1,312.1,607.1,312.1z M611.5,325.4c4.4,0,8-3.6,8-8c0-4.5-3.6-8.1-8-8c-4.4,0-7.9,3.6-7.9,8
	C603.6,321.8,607.1,325.4,611.5,325.4z M611.5,307.3c5.5,0,9.9,4.5,9.9,10c0,5.5-4.4,10-9.9,10c-5.5,0-9.9-4.5-9.9-10
	C601.7,311.8,606.1,307.3,611.5,307.3z M511.1,321.4c-3.2,0-10.1,0-13.3,0c0.6-3.6,4.4-24,6.6-36
	C506.6,297.3,510.4,317.8,511.1,321.4 M514.8,244l-1.8,0l-18.8,0l-25.1,121.3l20.3,0l5-25.8c2.8,0,17.5,0,20.3,0
	c0.6,3,4.6,25.8,4.6,25.8l20.3,0L514.8,244 M573.7,333l0,66.7l-22.4,0l0-157.7l22.4,0l0,62.3l16.8-62.3h23.2
	c-2.4,7.6-22,73.4-22.6,75.3l-0.1,0.2l0.1,0.2c0.6,1.8,25.6,74,28.5,82.1l-23.4,0L573.7,333"/>
</svg>
