<?xml version="1.0" encoding="utf-8"?>
<!-- Generator: Adobe Illustrator 19.1.0, SVG Export Plug-In . SVG Version: 6.00 Build 0)  -->
<svg version="1.1" id="Lager_1" xmlns="http://www.w3.org/2000/svg" xmlns:xlink="http://www.w3.org/1999/xlink" x="0px" y="0px"
	 viewBox="0 0 269.9 184.4" style="enable-background:new 0 0 269.9 184.4;" xml:space="preserve">
<style type="text/css">
	.st0{fill:#AC162C;}
	.st1{fill:#041E41;}
</style>
<g>
	<path class="st0" d="M220.3,117.2H117.8h-0.7l68.3-93.3h34.9l-34.1,46.6L220.3,117.2L220.3,117.2z M267.3,0h-94.1L70,141h197.3
		l-51.6-70.5L267.3,0L267.3,0z"/>
	<polygon class="st1" points="24.8,117.2 24.8,23.9 134.4,23.9 151.9,0 1,0 1,141 48.7,141 66.1,117.2 	"/>
	<path class="st1" d="M22.9,179.4c-2.7,3.3-6.4,4.9-10.1,4.9c-7.1,0-12.8-5.4-12.8-12.4s5.6-12.4,12.8-12.4c3.8,0,7.5,1.6,10.1,4.9
		l-3.6,2.7c-1.5-2.2-3.8-3.4-6.5-3.4c-4.3,0-8.1,3.6-8.1,8.2s3.9,8.2,8.1,8.2c2.7,0,5.1-1.2,6.6-3.3L22.9,179.4L22.9,179.4z"/>
	<path class="st1" d="M25.7,160h4.4v13.1c0,4.4,2.8,7,6.2,7c3.4,0,6.2-2.6,6.2-7V160h4.4v14.1c0,5.5-4.2,10.2-10.6,10.2
		c-6.4,0-10.6-4.7-10.6-10.2L25.7,160L25.7,160z"/>
	<polygon class="st1" points="57.2,164.2 49.4,164.2 49.4,160 69.4,160 69.4,164.2 61.6,164.2 61.6,183.8 57.2,183.8 	"/>
	<polygon class="st1" points="79.3,164.2 71.5,164.2 71.5,160 91.5,160 91.5,164.2 83.7,164.2 83.7,183.8 79.3,183.8 	"/>
	<polygon class="st1" points="112.5,179.7 112.5,183.8 94.3,183.8 94.3,160 112.5,160 112.5,164.2 98.6,164.2 98.6,169.9 
		109.8,169.9 109.8,174 98.6,174 98.6,179.7 	"/>
	<path class="st1" d="M127.3,172.2c3.1,0,4.5-1.9,4.5-4s-1.4-4-4.5-4h-6.6v8H127.3L127.3,172.2z M116.3,160h11.3
		c5.3,0,8.5,3.5,8.5,8.1c0,3.4-2.4,6.2-5.6,7.2l5.9,8.5h-5.5l-5-7.5h-5.4v7.5h-4.4V160L116.3,160L116.3,160z"/>
	<path class="st1" d="M189,179.7c2,0,3.1-1.2,3.1-2.8c0-1.7-1.1-2.8-3.1-2.8h-8.6v5.6L189,179.7L189,179.7z M189.1,169.9
		c2,0,3.1-1.1,3.1-2.8c0-1.7-1.2-2.8-3.1-2.8h-8.5v5.7L189.1,169.9L189.1,169.9z M176.1,160H189c5,0,7.9,2.4,7.9,6.8
		c0,2.3-1.1,3.9-2.7,5.1c1.6,1.2,2.7,2.8,2.7,5.2c0,4.4-3,6.7-7.9,6.7h-12.9V160L176.1,160z"/>
	<path class="st1" d="M200.1,160h4.4v13.1c0,4.4,2.8,7,6.2,7c3.4,0,6.2-2.6,6.2-7V160h4.4v14.1c0,5.5-4.2,10.2-10.6,10.2
		c-6.4,0-10.6-4.7-10.6-10.2L200.1,160L200.1,160z"/>
	<path class="st1" d="M247.1,179.4c-2.7,3.3-6.4,4.9-10.1,4.9c-7.1,0-12.8-5.4-12.8-12.4s5.6-12.4,12.8-12.4c3.8,0,7.5,1.6,10.1,4.9
		l-3.6,2.7c-1.5-2.2-3.8-3.4-6.5-3.4c-4.3,0-8.1,3.6-8.1,8.2s3.9,8.2,8.1,8.2c2.7,0,5.1-1.2,6.6-3.3L247.1,179.4L247.1,179.4z"/>
	<polygon class="st1" points="250.1,183.8 250.1,160 254.5,160 254.5,170.8 263.8,160 269.6,160 260.3,170.6 269.9,183.8 
		264.5,183.8 257.2,173.9 254.5,176.9 254.5,183.8 	"/>
	<path class="st1" d="M151,165.4c0,1.2,1.2,2.5,2.3,3.5c1.4-0.7,3.2-1.9,3.2-3.6c0-1.3-1.2-2.2-2.6-2.2
		C152.3,163,151,163.9,151,165.4 M152.2,173.1c-1.6,0.9-3.3,2-3.3,4.1s1.8,3.6,3.8,3.6c1.9,0,3.2-1.2,4.4-2.4L152.2,173.1
		L152.2,173.1z M162.2,178.2l5.2,5.6h-5.2l-2.5-2.7c-1.9,2.3-4,3.3-7.1,3.3c-4.2,0-8.1-2.5-8.1-7c0-3.2,2.3-5.6,5.2-6.7
		c-1.5-1.7-2.7-3.1-2.7-5.5c0-3.9,3.2-5.9,6.9-5.9c3.6,0,6.7,1.8,6.7,5.7c0,2.9-2.4,5-4.8,6.2l3.8,4.1l3.6-5.4h4.9L162.2,178.2
		L162.2,178.2z"/>
</g>
</svg>
