<svg xmlns="http://www.w3.org/2000/svg" viewBox="0 0 500 500" aria-label="Foto flower mark">
<g fill="none" stroke="currentColor" stroke-width="13" stroke-linecap="round" stroke-linejoin="round">
<path d="M 182.85 140.57 C 187.98 98.49 235.46 60.48 250.00 45.00 C 264.54 60.48 312.02 98.49 317.15 140.57"></path>
<path d="M 333.33 152.32 C 374.93 144.19 425.75 177.61 444.97 186.65 C 434.74 205.26 413.26 262.17 374.83 280.04"></path>
<path d="M 368.65 299.06 C 389.23 336.12 373.16 394.78 370.50 415.85 C 349.63 411.87 288.88 409.03 260.00 378.00"></path>
<path d="M 240.00 378.00 C 211.12 409.03 150.37 411.87 129.50 415.85 C 126.84 394.78 110.77 336.12 131.35 299.06"></path>
<path d="M 125.17 280.04 C 86.74 262.17 65.26 205.26 55.03 186.65 C 74.25 177.61 125.07 144.19 166.67 152.32"></path>
<path d="M 317.15 140.57 C 326.75 246.43 229.67 175.90 333.33 152.32"></path>
<path d="M 374.83 280.04 C 277.11 321.90 314.19 207.77 368.65 299.06"></path>
<path d="M 260.00 378.00 C 190.00 298.00 310.00 298.00 240.00 378.00"></path>
<path d="M 131.35 299.06 C 185.81 207.77 222.89 321.90 125.17 280.04"></path>
<path d="M 166.67 152.32 C 270.33 175.90 173.25 246.43 182.85 140.57"></path>
</g>
</svg>