<?xml version="1.0" encoding="utf-8"?>
<!-- Generator: Adobe Illustrator 19.1.0, SVG Export Plug-In . SVG Version: 6.00 Build 0)  -->
<svg version="1.1" id="Lager_1" xmlns="http://www.w3.org/2000/svg" xmlns:xlink="http://www.w3.org/1999/xlink" x="0px" y="0px"
	 viewBox="0 0 245.3 99.7" style="enable-background:new 0 0 245.3 99.7;" xml:space="preserve">
<g>
	<path d="M3.5,72.9c0-3.6,0-4.3,0-5.1s-0.2-1.2-1-1.4c-0.2,0-0.6-0.1-0.9-0.1c-0.3,0-0.4,0-0.4-0.2s0.2-0.2,0.5-0.2
		C2.8,65.9,4.4,66,5,66s2.1-0.1,3-0.1c0.3,0,0.5,0,0.5,0.2s-0.1,0.2-0.4,0.2c-0.3,0-0.4,0-0.7,0.1c-0.6,0.1-0.8,0.5-0.9,1.4
		c0,0.8,0,1.4,0,5.1v4.4c0,1,0.1,2.2,0.1,3.4c0,1.4-0.1,2.9-0.6,4.2c-0.5,1.5-1.8,3.1-4.1,4.5c-0.3,0.2-0.7,0.4-1.2,0.6
		c-0.2,0.1-0.4,0.1-0.5,0.1C0.1,90.2,0,90.1,0,90s0.1-0.2,0.5-0.4c0.3-0.2,0.7-0.4,1.1-0.9c1.8-1.8,1.8-4.2,1.8-8.9L3.5,72.9
		L3.5,72.9L3.5,72.9z"/>
	<path d="M11,82.5c0-0.6,0.4-1.5,1.5-1.5c0.8,0,1.5,0.6,1.5,1.4s-0.6,1.5-1.5,1.5C11.5,83.9,11,83.2,11,82.5"/>
	<path d="M32.5,73.5c0.1,0,0.1,0,0.1-0.2v-0.5c0-3.6,0-4.3,0-5.1c0-0.8-0.2-1.2-1-1.4c-0.2,0-0.6-0.1-0.9-0.1s-0.4,0-0.4-0.2
		s0.2-0.2,0.5-0.2c1.3,0,2.8,0.1,3.4,0.1c0.6,0,2.1-0.1,3-0.1c0.3,0,0.5,0,0.5,0.2s-0.1,0.2-0.4,0.2c-0.2,0-0.4,0-0.7,0.1
		c-0.6,0.1-0.8,0.5-0.9,1.4c0,0.8,0,1.4,0,5.1V77c0,2.2,0,4.1,0.1,5.1c0.1,0.7,0.2,1.2,0.9,1.3c0.3,0,0.9,0.1,1.2,0.1
		s0.4,0.1,0.4,0.2c0,0.2-0.2,0.2-0.5,0.2c-1.6,0-3.1-0.1-3.7-0.1c-0.6,0-2.1,0.1-3,0.1c-0.3,0-0.5-0.1-0.5-0.2s0.1-0.2,0.4-0.2
		c0.4,0,0.6,0,0.9-0.1c0.5-0.1,0.6-0.6,0.7-1.3c0.1-1,0.1-2.9,0.1-5.1v-2c0-0.1-0.1-0.1-0.1-0.1h-9.1c-0.1,0-0.1,0-0.1,0.1v2.1
		c0,2.2,0,4.1,0.1,5.1c0.1,0.7,0.2,1.2,0.9,1.3c0.3,0,0.9,0.1,1.2,0.1s0.4,0.1,0.4,0.2c0,0.2-0.2,0.2-0.5,0.2
		c-1.6,0-3.1-0.1-3.7-0.1c-0.6,0-2.1,0.1-3,0.1c-0.3,0-0.5-0.1-0.5-0.2s0.1-0.2,0.4-0.2c0.4,0,0.6,0,0.9-0.1
		c0.5-0.1,0.6-0.6,0.7-1.3c0.1-1,0.1-2.9,0.1-5.1v-4.2c0-3.6,0-4.3,0-5.1s-0.2-1.2-1-1.4c-0.2,0-0.6-0.1-0.9-0.1s-0.4,0-0.4-0.2
		s0.2-0.2,0.5-0.2c1.3,0,2.8,0.1,3.4,0.1s2.1-0.1,3-0.1c0.3,0,0.5,0,0.5,0.2s-0.1,0.2-0.4,0.2c-0.2,0-0.4,0-0.7,0.1
		c-0.6,0.1-0.8,0.5-0.9,1.4c0,0.8,0,1.4,0,5.1v0.5c0,0.1,0.1,0.2,0.1,0.2L32.5,73.5L32.5,73.5z"/>
	<path d="M44.4,77.9c-0.1,0-0.2,0-0.2,0.2l-1.3,3.3c-0.2,0.6-0.4,1.2-0.4,1.5c0,0.4,0.2,0.7,1,0.7h0.4c0.3,0,0.4,0,0.4,0.2
		S44.2,84,43.9,84c-0.8,0-1.8-0.1-2.5-0.1c-0.3,0-1.6,0.1-2.8,0.1c-0.3,0-0.5,0-0.5-0.2c0-0.1,0.1-0.2,0.3-0.2s0.6,0,0.7,0
		c1.1-0.1,1.6-1,2-2.2l6-14.8c0.3-0.7,0.4-1,0.7-1c0.2,0,0.4,0.2,0.6,0.8c0.6,1.3,4.4,10.9,5.9,14.5c0.9,2.2,1.6,2.5,2.1,2.6
		c0.4,0.1,0.7,0.1,1,0.1c0.2,0,0.3,0,0.3,0.2S57.5,84,56.6,84s-2.6,0-4.5,0c-0.4,0-0.7,0-0.7-0.2c0-0.1,0.1-0.2,0.3-0.2
		c0.2,0,0.3-0.3,0.2-0.6L50,78.1c0-0.1-0.1-0.2-0.2-0.2H44.4L44.4,77.9z M49.3,76.7c0.1,0,0.1-0.1,0.1-0.1l-2.2-5.9
		c0-0.1,0-0.2-0.1-0.2S47,70.6,47,70.7l-2.2,5.9c0,0.1,0,0.2,0.1,0.2h4.4C49.3,76.8,49.3,76.7,49.3,76.7z"/>
	<path d="M60.3,72.9c0-3.6,0-4.3,0-5.1s-0.2-1.2-1-1.4c-0.2,0-0.6-0.1-0.9-0.1s-0.4,0-0.4-0.2s0.2-0.2,0.5-0.2
		c1.3,0,2.8,0.1,3.3,0.1c0.8,0,2.6-0.1,3.4-0.1c1.5,0,3.1,0.1,4.4,1c0.7,0.5,1.6,1.7,1.6,3.3c0,1.8-0.7,3.4-3.2,5.4
		c2.1,2.7,3.8,4.8,5.2,6.3c1.3,1.4,2.3,1.6,2.7,1.6c0.3,0,0.5,0.1,0.7,0.1s0.3,0.1,0.3,0.2c0,0.2-0.2,0.2-0.5,0.2H74
		c-1.3,0-1.9-0.1-2.6-0.5c-1-0.6-1.9-1.7-3.3-3.5c-1-1.3-2.1-2.9-2.4-3.3c-0.1-0.1-0.3-0.2-0.4-0.2h-2.1c-0.1,0-0.2,0-0.2,0.2V77
		c0,2.2,0,4.1,0.1,5.1c0.1,0.7,0.2,1.2,0.9,1.3c0.4,0,0.9,0.1,1.2,0.1c0.2,0,0.3,0.1,0.3,0.2c0,0.2-0.2,0.2-0.5,0.2
		c-1.4,0-3.2-0.1-3.5-0.1c-0.5,0-2,0.1-2.9,0.1c-0.3,0-0.5-0.1-0.5-0.2s0.1-0.2,0.4-0.2c0.4,0,0.6,0,0.9-0.1
		c0.5-0.1,0.6-0.6,0.7-1.3c0.1-1,0.1-2.9,0.1-5.1v-4.1L60.3,72.9L60.3,72.9z M63.1,74.8c0,0.3,0,0.4,0.2,0.4
		c0.5,0.2,1.2,0.2,1.8,0.2c1,0,1.3-0.1,1.7-0.4c0.7-0.5,1.4-1.6,1.4-3.6c0-3.4-2.3-4.4-3.7-4.4c-0.6,0-1,0-1.3,0.1
		c-0.2,0-0.2,0.1-0.2,0.3L63.1,74.8L63.1,74.8z"/>
	<path d="M75.5,68.3c-0.5-1.3-1-1.6-1.8-1.8c-0.4-0.1-0.7-0.1-0.9-0.1c-0.2,0-0.3-0.1-0.3-0.2c0-0.2,0.3-0.2,0.6-0.2
		c1.3,0,2.6,0.1,3.5,0.1c0.6,0,1.7-0.1,2.9-0.1c0.3,0,0.6,0,0.6,0.2s-0.1,0.2-0.4,0.2c-0.4,0-0.7,0-0.9,0.2
		c-0.2,0.1-0.2,0.3-0.2,0.5c0,0.3,0.2,1,0.5,1.8l4.1,10.9h0.1c1-2.6,4.1-10.3,4.7-11.9c0.1-0.3,0.2-0.7,0.2-0.9
		c0-0.2-0.1-0.4-0.3-0.5c-0.3-0.1-0.6-0.1-1-0.1c-0.2,0-0.4,0-0.4-0.2s0.2-0.2,0.7-0.2c1.2,0,2.2,0.1,2.5,0.1c0.4,0,1.5-0.1,2.3-0.1
		c0.3,0,0.5,0,0.5,0.2s-0.1,0.2-0.4,0.2c-0.2,0-0.7,0-1.2,0.3c-0.3,0.2-0.7,0.6-1.3,2.2c-0.9,2.3-1.6,3.5-2.9,6.5
		c-1.5,3.5-2.7,6.1-3.2,7.3c-0.6,1.4-0.8,1.8-1.1,1.8c-0.3,0-0.5-0.3-0.9-1.5L75.5,68.3L75.5,68.3z"/>
	<path d="M95.1,72.9c0-3.6,0-4.3,0-5.1s-0.2-1.2-1-1.4c-0.2,0-0.6-0.1-0.9-0.1s-0.4,0-0.4-0.2s0.2-0.2,0.5-0.2c0.6,0,1.3,0,1.9,0
		s1.2,0,1.5,0c0.8,0,5.5,0,6,0s0.8-0.1,1-0.1c0.1,0,0.3-0.1,0.4-0.1s0.1,0.1,0.1,0.2c0,0.2-0.1,0.5-0.2,1.6c0,0.2-0.1,1.3-0.1,1.6
		c0,0.1-0.1,0.3-0.2,0.3c-0.2,0-0.2-0.1-0.2-0.3c0-0.2,0-0.6-0.1-0.9c-0.2-0.4-0.4-0.7-1.6-0.9c-0.4,0-2.9-0.1-3.4-0.1
		c-0.1,0-0.2,0.1-0.2,0.2v6.1c0,0.2,0,0.3,0.2,0.3c0.5,0,3.3,0,3.8,0c0.6,0,0.9-0.1,1.1-0.4c0.2-0.2,0.3-0.3,0.4-0.3s0.2,0,0.2,0.2
		c0,0.1-0.1,0.5-0.2,1.7c0,0.5-0.1,1.4-0.1,1.6s0,0.5-0.2,0.5s-0.2-0.1-0.2-0.2c0-0.2,0-0.5-0.1-0.9c-0.1-0.5-0.5-0.8-1.3-0.9
		c-0.5,0-2.8-0.1-3.4-0.1c-0.1,0-0.1,0.1-0.1,0.2v1.9c0,0.8,0,3,0,3.7c0,1.6,0.4,2,2.9,2c0.6,0,1.6,0,2.3-0.3
		c0.6-0.3,0.9-0.8,1.1-1.8c0-0.3,0.1-0.4,0.3-0.4c0.2,0,0.2,0.2,0.2,0.4c0,0.6-0.2,2.2-0.3,2.7c-0.2,0.6-0.4,0.6-1.3,0.6
		c-1.8,0-3.1,0-4.1-0.1c-1,0-1.8-0.1-2.5-0.1c-0.3,0-0.8,0-1.4,0s-1.2,0-1.7,0c-0.3,0-0.5-0.1-0.5-0.2s0.1-0.2,0.4-0.2
		c0.4,0,0.6,0,0.9-0.1c0.5-0.1,0.6-0.6,0.7-1.3c0.1-1,0.1-2.9,0.1-5.1v-4L95.1,72.9L95.1,72.9z"/>
	<path d="M108.9,83.7c-0.4-0.2-0.5-0.3-0.5-0.8c0-1.3,0.1-2.8,0.1-3.1c0-0.4,0.1-0.6,0.3-0.6c0.2,0,0.2,0.2,0.2,0.4
		c0,0.3,0.1,0.8,0.2,1.2c0.5,1.8,1.9,2.4,3.4,2.4c2.2,0,3.2-1.5,3.2-2.7s-0.4-2.3-2.3-3.8l-1.1-0.9c-2.6-2.1-3.5-3.7-3.5-5.7
		c0-2.6,2.2-4.5,5.5-4.5c1.6,0,2.6,0.2,3.2,0.4c0.2,0,0.3,0.1,0.3,0.3c0,0.3-0.1,1-0.1,2.9c0,0.5-0.1,0.7-0.3,0.7
		c-0.2,0-0.2-0.1-0.2-0.4c0-0.2-0.1-1-0.6-1.6c-0.4-0.5-1.1-1.2-2.6-1.2c-1.8,0-2.9,1-2.9,2.5c0,1.1,0.6,1.9,2.5,3.5l0.7,0.5
		c2.9,2.2,3.9,3.8,3.9,6.1c0,1.4-0.5,3-2.2,4.2c-1.2,0.8-2.5,1-3.8,1C111,84.4,109.9,84.2,108.9,83.7"/>
	<path d="M127.4,67.3l-3.6,0.1c-1.4,0-2,0.2-2.3,0.7c-0.2,0.4-0.4,0.6-0.4,0.8c0,0.2-0.1,0.3-0.3,0.3s-0.2-0.1-0.2-0.4
		c0-0.4,0.5-2.6,0.5-2.8c0.1-0.3,0.1-0.5,0.3-0.5s0.4,0.2,1,0.3c0.7,0.1,1.6,0.1,2.4,0.1h9.5c0.8,0,1.3-0.1,1.7-0.1
		c0.4-0.1,0.6-0.1,0.6-0.1c0.2,0,0.2,0.1,0.2,0.5c0,0.5-0.1,2.2-0.1,2.8c0,0.2-0.1,0.4-0.2,0.4c-0.2,0-0.2-0.1-0.3-0.5v-0.3
		c0-0.6-0.7-1.3-2.8-1.3l-3-0.1V77c0,2.2,0,4.1,0.1,5.1c0.1,0.7,0.2,1.2,0.9,1.3c0.3,0,0.9,0.1,1.2,0.1s0.4,0.1,0.4,0.2
		c0,0.2-0.2,0.2-0.5,0.2c-1.6,0-3.1-0.1-3.8-0.1c-0.5,0-2.1,0.1-3,0.1c-0.3,0-0.5-0.1-0.5-0.2s0.1-0.2,0.4-0.2c0.4,0,0.6,0,0.9-0.1
		c0.5-0.1,0.6-0.6,0.7-1.3c0.1-1,0.1-2.9,0.1-5.1L127.4,67.3L127.4,67.3L127.4,67.3z"/>
	<path d="M166.8,77.1c0,2.3,0,4.1,0.1,5.1c0.1,0.7,0.2,1.2,0.9,1.3c0.3,0,0.9,0.1,1.2,0.1s0.4,0.1,0.4,0.2c0,0.2-0.2,0.2-0.5,0.2
		c-1.5,0-3-0.1-3.6-0.1c-0.6,0-2.1,0.1-3,0.1c-0.3,0-0.5,0-0.5-0.2c0-0.1,0.1-0.2,0.4-0.2c0.4,0,0.6,0,0.9-0.1
		c0.5-0.1,0.6-0.6,0.7-1.3c0.1-1,0.1-2.8,0.1-5.1v-4.2c0-3.6,0-4.3,0-5.1s-0.2-1.2-1-1.4c-0.2,0-0.6-0.1-0.9-0.1
		c-0.2,0-0.4,0-0.4-0.2s0.2-0.2,0.6-0.2c0.6,0,1.3,0,1.9,0c0.6,0,1.2,0,1.5,0c0.9,0,5.8,0,6.3,0s0.7,0,1-0.1c0.1,0,0.3-0.1,0.4-0.1
		c0.1,0,0.2,0.1,0.2,0.2c0,0.2-0.1,0.5-0.2,1.1c0,0.2-0.1,1.7-0.1,1.9s-0.1,0.3-0.2,0.3c-0.2,0-0.2-0.1-0.2-0.4c0-0.2,0-0.6-0.1-0.9
		c-0.2-0.3-0.7-0.7-1.6-0.7l-3.7-0.1c-0.1,0-0.2,0.1-0.2,0.3v6c0,0.1,0,0.2,0.2,0.2h3.1c0.4,0,0.7,0,1.1,0c0.5,0,0.8-0.1,1-0.4
		c0.1-0.1,0.2-0.2,0.3-0.2c0.1,0,0.1,0.1,0.1,0.2s-0.1,0.7-0.2,1.5c0,0.5-0.1,1.6-0.1,1.7c0,0.2,0,0.5-0.2,0.5
		c-0.1,0-0.2-0.2-0.2-0.3c0-0.2-0.1-0.5-0.1-0.7c-0.1-0.3-0.5-0.8-1.2-0.9c-0.6-0.1-3.1-0.1-3.5-0.1c-0.1,0-0.2,0-0.2,0.2v2
		L166.8,77.1L166.8,77.1z"/>
	<path d="M178.6,72.9c0-3.6,0-4.3,0-5.1s-0.2-1.2-1-1.4c-0.2,0-0.6-0.1-0.9-0.1s-0.4,0-0.4-0.2s0.2-0.2,0.5-0.2
		c1.3,0,2.8,0.1,3.3,0.1c0.8,0,2.6-0.1,3.4-0.1c1.5,0,3.1,0.1,4.4,1c0.7,0.5,1.6,1.7,1.6,3.3c0,1.8-0.7,3.4-3.2,5.4
		c2.1,2.7,3.8,4.8,5.2,6.3c1.3,1.4,2.3,1.6,2.7,1.6c0.3,0,0.5,0.1,0.7,0.1c0.2,0,0.3,0.1,0.3,0.2c0,0.2-0.2,0.2-0.5,0.2h-2.3
		c-1.3,0-1.9-0.1-2.6-0.5c-1-0.6-1.9-1.7-3.3-3.5c-1-1.3-2.1-2.9-2.4-3.3c-0.1-0.1-0.3-0.2-0.4-0.2h-2.1c-0.1,0-0.2,0-0.2,0.2V77
		c0,2.2,0,4.1,0.1,5.1c0.1,0.7,0.2,1.2,0.9,1.3c0.4,0,0.9,0.1,1.2,0.1c0.2,0,0.3,0.1,0.3,0.2c0,0.2-0.2,0.2-0.5,0.2
		c-1.4,0-3.2-0.1-3.5-0.1c-0.5,0-2,0.1-2.9,0.1c-0.3,0-0.5-0.1-0.5-0.2s0.1-0.2,0.4-0.2c0.4,0,0.6,0,0.9-0.1
		c0.5-0.1,0.6-0.6,0.7-1.3c0.1-1,0.1-2.9,0.1-5.1V72.9L178.6,72.9z M181.5,74.8c0,0.3,0,0.4,0.2,0.4c0.5,0.2,1.2,0.2,1.8,0.2
		c1,0,1.3-0.1,1.7-0.4c0.7-0.5,1.4-1.6,1.4-3.6c0-3.4-2.3-4.4-3.7-4.4c-0.6,0-1,0-1.3,0.1c-0.2,0-0.2,0.1-0.2,0.3v7.4H181.5z"/>
	<path d="M194,75c0-4.1,2.7-9.4,9.9-9.4c6,0,9.7,3.5,9.7,9s-3.8,9.8-9.9,9.8C196.8,84.4,194,79.2,194,75 M210.2,75.4
		c0-5.4-3.1-8.7-7-8.7c-2.8,0-5.9,1.5-5.9,7.5c0,5,2.8,8.9,7.4,8.9C206.3,83.2,210.2,82.3,210.2,75.4"/>
	<path d="M217.5,83.7c-0.4-0.2-0.5-0.3-0.5-0.8c0-1.3,0.1-2.8,0.1-3.1c0-0.4,0.1-0.6,0.3-0.6c0.2,0,0.2,0.2,0.2,0.4
		c0,0.3,0.1,0.8,0.2,1.2c0.5,1.8,1.9,2.4,3.4,2.4c2.2,0,3.2-1.5,3.2-2.7s-0.4-2.3-2.3-3.8l-1.1-0.9c-2.6-2.1-3.5-3.7-3.5-5.7
		c0-2.6,2.2-4.5,5.5-4.5c1.6,0,2.6,0.2,3.2,0.4c0.2,0,0.3,0.1,0.3,0.3c0,0.3-0.1,1-0.1,2.9c0,0.5-0.1,0.7-0.3,0.7s-0.2-0.1-0.2-0.4
		c0-0.2-0.1-1-0.6-1.6c-0.4-0.5-1.1-1.2-2.6-1.2c-1.8,0-2.8,1-2.8,2.5c0,1.1,0.5,1.9,2.5,3.5l0.7,0.5c2.9,2.2,3.9,3.8,3.9,6.1
		c0,1.4-0.5,3-2.3,4.2c-1.2,0.8-2.5,1-3.8,1C219.6,84.4,218.5,84.2,217.5,83.7"/>
	<path d="M235.9,67.3l-3.6,0.1c-1.4,0-2,0.2-2.3,0.7c-0.2,0.4-0.4,0.6-0.4,0.8c0,0.2-0.1,0.3-0.3,0.3s-0.2-0.1-0.2-0.4
		c0-0.4,0.5-2.6,0.5-2.8c0.1-0.3,0.1-0.5,0.3-0.5c0.2,0,0.4,0.2,1,0.3c0.7,0.1,1.6,0.1,2.4,0.1h9.5c0.8,0,1.3-0.1,1.7-0.1
		c0.4-0.1,0.6-0.1,0.6-0.1c0.2,0,0.2,0.1,0.2,0.5c0,0.5-0.1,2.2-0.1,2.8c0,0.2-0.1,0.4-0.2,0.4c-0.2,0-0.2-0.1-0.3-0.5v-0.3
		c0-0.6-0.7-1.3-2.8-1.3l-3-0.1V77c0,2.2,0,4.1,0.1,5.1c0.1,0.7,0.2,1.2,0.9,1.3c0.3,0,0.9,0.1,1.2,0.1s0.4,0.1,0.4,0.2
		c0,0.2-0.2,0.2-0.5,0.2c-1.6,0-3.1-0.1-3.8-0.1c-0.5,0-2.1,0.1-3,0.1c-0.3,0-0.5-0.1-0.5-0.2s0.1-0.2,0.4-0.2c0.4,0,0.6,0,0.9-0.1
		c0.5-0.1,0.6-0.6,0.7-1.3c0.1-1,0.1-2.9,0.1-5.1v-9.7L235.9,67.3L235.9,67.3z"/>
	<path d="M145.2,73.9c-0.7-0.9-0.8-1.5-0.8-2.2c0-1.2,1.1-2.9,3.8-2.9c0.8,0,1.5,0.2,1.9,0.3c0.3,0.1,0.3,0.2,0.3,0.4
		c0,0.5-0.1,1.8-0.2,2c0,0.2-0.1,0.3-0.2,0.3s-0.1-0.1-0.1-0.3c0-0.4-0.1-0.9-0.5-1.3c-0.3-0.4-0.9-0.7-1.7-0.7
		c-0.7,0-1.7,0.5-1.7,1.8c0,1.5,1.3,2.7,2.6,4.1c0.5,0.6,2.5,2.3,2.7,2.6c0.3-0.4,0.7-1.4,0.7-2.4c0-0.2-0.1-0.5-0.3-0.7
		s-0.5-0.2-0.8-0.2c-0.1,0-0.2,0-0.2-0.1s0.1-0.2,0.2-0.2c0.4,0,1,0,1.9,0.1c0.3,0,0.5,0.1,0.5,0.3c0,1.2-0.6,2.7-1.5,3.7
		c1,0.9,1.7,1.3,2.2,1.5c0.5,0.3,1.4,0.5,1.7,0.5c0.1,0,0.2,0,0.2,0.1s-0.1,0.1-0.5,0.1h-1.2c-1.8,0-2.3-0.2-3.7-1.2
		c-0.5,0.5-1.6,1.4-3.7,1.4c-3.3,0-4.3-2.1-4.3-3.4C142.6,75.8,144.2,74.3,145.2,73.9 M150,79.1c-0.9-0.8-2.4-2.2-2.8-2.7
		c-0.4-0.4-1.4-1.6-1.7-1.9c-0.5,0.4-1.1,1.1-1.1,2.4c0,1.9,1.4,3.2,3,3.2C148.7,80,149.7,79.4,150,79.1"/>
	<polygon points="87.4,0 81.2,20.1 87.4,40.2 123,20.1 	"/>
	<polygon points="158,0 122.4,20.1 158,40.2 164.2,20.1 	"/>
	<path d="M20.9,98.8c-0.8-0.7-1-1.5-1-2.3c0-0.5,0.2-1.4,0.9-2.1c0.6-0.5,1.3-0.8,2.5-0.8c0.5,0,0.8,0,1.2,0.1
		c0.3,0,0.6,0.1,0.8,0.1c0.1,0,0.1,0,0.1,0.1s0,0.2,0,0.4c0,0.3,0,0.7,0,0.8s0,0.2-0.1,0.2s-0.1-0.1-0.1-0.2c0-0.2-0.1-0.5-0.3-0.7
		c-0.3-0.3-0.8-0.5-1.5-0.5s-1.1,0.1-1.5,0.4c-0.6,0.5-0.7,1.2-0.7,2c0,1.8,1.4,2.7,2.5,2.7c0.7,0,1.1-0.1,1.4-0.4
		c0.1-0.2,0.2-0.4,0.3-0.5c0-0.1,0-0.2,0.1-0.2s0.1,0.1,0.1,0.1c0,0.1-0.1,0.8-0.2,1c0,0.1-0.1,0.2-0.2,0.2
		c-0.3,0.1-0.9,0.2-1.4,0.2C22.6,99.6,21.6,99.4,20.9,98.8"/>
	<path d="M30.8,96.6c0-1.3,0.9-3,3.3-3c2,0,3.3,1.1,3.3,2.9s-1.3,3.2-3.3,3.2C31.8,99.6,30.8,98,30.8,96.6 M36.2,96.7
		c0-1.7-1-2.8-2.3-2.8C33,94,32,94.5,32,96.4c0,1.6,0.9,2.8,2.4,2.8C35,99.2,36.2,98.9,36.2,96.7"/>
	<path d="M43.4,95.9c0-1.2,0-1.4,0-1.6c0-0.3-0.1-0.3-0.3-0.4c-0.1,0-0.2,0-0.3,0s-0.1,0-0.1-0.1s0.1-0.1,0.2-0.1c0.4,0,0.9,0,1.1,0
		c0.3,0,1,0,1.2,0c0.5,0,1.1,0,1.5,0.3c0.2,0.2,0.6,0.5,0.6,1.1s-0.3,1.1-1.1,1.7c0.7,0.9,1.3,1.6,1.7,2c0.4,0.4,0.7,0.5,0.8,0.5
		s0.1,0,0.2,0s0.1,0,0.1,0.1s-0.1,0.1-0.2,0.1H48c-0.4,0-0.7,0-0.9-0.2c-0.3-0.2-0.6-0.5-1.1-1.1c-0.3-0.4-0.7-0.9-0.8-1.1L45.1,97
		h-0.7c0,0-0.1,0-0.1,0.1v0.1c0,0.7,0,1.3,0,1.6c0,0.2,0.1,0.4,0.3,0.4c0.1,0,0.3,0,0.4,0c0.1,0,0.1,0,0.1,0.1s-0.1,0.1-0.2,0.1
		c-0.5,0-1.1,0-1.2,0c-0.2,0-0.7,0-1,0c-0.1,0-0.2,0-0.2-0.1c0,0,0-0.1,0.1-0.1s0.2,0,0.3,0c0.2,0,0.2-0.2,0.2-0.4
		c0-0.3,0-0.9,0-1.6v-1.3H43.4z M44.4,96.5c0,0.1,0,0.1,0.1,0.1c0.2,0.1,0.4,0.1,0.6,0.1c0.3,0,0.4,0,0.6-0.1
		c0.2-0.2,0.5-0.5,0.5-1.1c0-1.1-0.7-1.4-1.2-1.4c-0.2,0-0.4,0-0.5,0s-0.1,0-0.1,0.1L44.4,96.5L44.4,96.5z"/>
	<path d="M54.2,95.9c0-1.2,0-1.4,0-1.6c0-0.3-0.1-0.3-0.3-0.4c-0.1,0-0.2,0-0.3,0c-0.1,0-0.1,0-0.1-0.1s0.1-0.1,0.2-0.1
		c0.4,0,0.9,0,1.1,0c0.3,0,1,0,1.3,0c1,0,1.4,0.3,1.5,0.4c0.2,0.2,0.4,0.5,0.4,0.9c0,1.1-0.9,1.9-2,1.9h-0.2c0,0-0.1,0-0.1-0.1
		s0.1-0.1,0.3-0.1c0.4,0,1.1-0.5,1.1-1.2c0-0.3,0-0.8-0.5-1.1c-0.3-0.3-0.6-0.3-0.8-0.3c-0.1,0-0.3,0-0.3,0l-0.1,0.1v3.1
		c0,0.7,0,1.3,0,1.6c0,0.2,0.1,0.4,0.3,0.4c0.1,0,0.3,0,0.4,0s0.1,0,0.1,0.1s-0.1,0.1-0.1,0.1c-0.5,0-1.1,0-1.3,0c-0.2,0-0.7,0-1,0
		c-0.1,0-0.2,0-0.2-0.1c0,0,0-0.1,0.1-0.1s0.2,0,0.3,0c0.2,0,0.2-0.2,0.2-0.4c0-0.3,0-0.9,0-1.6V95.9L54.2,95.9z"/>
	<path d="M63.2,96.6c0-1.3,0.9-3,3.3-3c2,0,3.3,1.1,3.3,2.9s-1.3,3.2-3.3,3.2C64.2,99.6,63.2,98,63.2,96.6 M68.6,96.7
		c0-1.7-1-2.8-2.3-2.8c-0.9,0-1.9,0.5-1.9,2.4c0,1.6,0.9,2.8,2.4,2.8C67.4,99.2,68.6,98.9,68.6,96.7"/>
	<path d="M75.8,95.9c0-1.2,0-1.4,0-1.6c0-0.3-0.1-0.3-0.3-0.4c-0.1,0-0.2,0-0.3,0c-0.1,0-0.1,0-0.1-0.1s0.1-0.1,0.2-0.1
		c0.4,0,0.9,0,1.1,0c0.3,0,1,0,1.2,0c0.5,0,1.1,0,1.5,0.3c0.2,0.2,0.6,0.5,0.6,1.1s-0.3,1.1-1.1,1.7c0.7,0.9,1.3,1.6,1.7,2
		c0.4,0.4,0.7,0.5,0.8,0.5c0.1,0,0.1,0,0.2,0s0.1,0,0.1,0.1s-0.1,0.1-0.2,0.1h-0.8c-0.4,0-0.7,0-0.9-0.2c-0.3-0.2-0.6-0.5-1.1-1.1
		c-0.3-0.4-0.7-0.9-0.8-1.1L77.5,97h-0.7c0,0-0.1,0-0.1,0.1v0.1c0,0.7,0,1.3,0,1.6c0,0.2,0.1,0.4,0.3,0.4c0.1,0,0.3,0,0.4,0
		s0.1,0,0.1,0.1s-0.1,0.1-0.2,0.1c-0.5,0-1.1,0-1.2,0c-0.2,0-0.7,0-1,0c-0.1,0-0.2,0-0.2-0.1c0,0,0-0.1,0.1-0.1s0.2,0,0.3,0
		c0.2,0,0.2-0.2,0.2-0.4c0-0.3,0-0.9,0-1.6v-1.3H75.8z M76.8,96.5C76.8,96.6,76.8,96.6,76.8,96.5c0.3,0.2,0.5,0.2,0.7,0.2
		c0.3,0,0.4,0,0.6-0.1c0.2-0.2,0.5-0.5,0.5-1.1c0-1.1-0.7-1.4-1.2-1.4c-0.2,0-0.4,0-0.5,0s-0.1,0-0.1,0.1V96.5L76.8,96.5z"/>
	<path d="M86.9,97.6C86.9,97.6,86.8,97.6,86.9,97.6l-0.5,1.1c-0.1,0.2-0.1,0.4-0.1,0.5s0.1,0.2,0.3,0.2h0.1c0.1,0,0.1,0,0.1,0.1
		s0,0.1-0.1,0.1c-0.3,0-0.6,0-0.9,0c-0.1,0-0.5,0-0.9,0c-0.1,0-0.1,0-0.1-0.1c0,0,0-0.1,0.1-0.1s0.2,0,0.2,0
		c0.4-0.1,0.5-0.3,0.7-0.7l2.1-4.8c0.1-0.2,0.2-0.3,0.2-0.3c0.1,0,0.2,0.1,0.2,0.2c0.2,0.4,1.5,3.5,2,4.7c0.3,0.7,0.5,0.8,0.7,0.8
		c0.1,0,0.2,0,0.3,0c0.1,0,0.1,0,0.1,0.1s0,0.1-0.3,0.1s-0.9,0-1.5,0c-0.1,0-0.2,0-0.2-0.1c0,0,0-0.1,0.1-0.1s0.1-0.1,0.1-0.2
		L89,97.5c0,0,0-0.1-0.1-0.1h-2L86.9,97.6L86.9,97.6z M88.6,97.1L88.6,97.1l-0.7-2V95c0,0,0,0,0,0.1l-0.9,2v0.1h1.6V97.1z"/>
	<path d="M97.3,94.2h-1.2c-0.5,0-0.7,0.1-0.8,0.2c-0.1,0.1-0.1,0.2-0.1,0.3s0,0.1-0.1,0.1s-0.1,0-0.1-0.1s0.2-0.9,0.2-0.9
		c0-0.1,0-0.1,0.1-0.1s0.1,0.1,0.3,0.1c0.2,0,0.5,0,0.8,0h3.2c0.3,0,0.4,0,0.5,0s0.2,0,0.2,0c0.1,0,0.1,0,0.1,0.2s0,0.7,0,0.9
		c0,0.1,0,0.1-0.1,0.1s-0.1,0-0.1-0.2v-0.1c0-0.2-0.2-0.4-0.9-0.4h-1v3.1c0,0.7,0,1.3,0,1.6c0,0.2,0.1,0.4,0.3,0.4
		c0.1,0,0.3,0,0.4,0s0.1,0,0.1,0.1s-0.1,0.1-0.2,0.1c-0.5,0-1.1,0-1.3,0c-0.2,0-0.7,0-1,0c-0.1,0-0.2,0-0.2-0.1c0,0,0-0.1,0.1-0.1
		s0.2,0,0.3,0c0.2,0,0.2-0.2,0.2-0.4c0-0.3,0-0.9,0-1.6v-3.2H97.3z"/>
	<path d="M106.5,95.9c0-1.2,0-1.4,0-1.6c0-0.3-0.1-0.3-0.3-0.4c-0.1,0-0.2,0-0.3,0c-0.1,0-0.1,0-0.1-0.1s0.1-0.1,0.2-0.1
		c0.4,0,0.9,0,1.1,0c0.3,0,2,0,2.2,0c0.1,0,0.3,0,0.3,0h0.1c0,0,0.1,0,0.1,0.1s0,0.1-0.1,0.5c0,0.1,0,0.4,0,0.5c0,0,0,0.1-0.1,0.1
		s-0.1,0-0.1-0.1s0-0.2-0.1-0.3s-0.1-0.2-0.5-0.3c-0.1,0-1.1,0-1.2,0c0,0-0.1,0-0.1,0.1v1.9c0,0,0,0.1,0.1,0.1c0.2,0,1.2,0,1.4,0
		c0.2,0,0.3,0,0.4-0.1s0.1-0.1,0.1-0.1s0.1,0,0.1,0.1s0,0.2-0.1,0.6c0,0.2,0,0.5,0,0.5c0,0.1,0,0.2-0.1,0.2s-0.1,0-0.1-0.1
		s0-0.2,0-0.3c0-0.2-0.1-0.3-0.4-0.3c-0.1,0-1.1,0-1.3,0c0,0,0,0,0,0.1v0.6c0,0.3,0,0.9,0,1.1c0,0.5,0.3,0.6,1.1,0.6
		c0.2,0,0.5,0,0.8-0.1c0.2-0.1,0.3-0.3,0.3-0.6c0-0.1,0-0.1,0.1-0.1s0.1,0.1,0.1,0.2c0,0.2-0.1,0.7-0.1,0.9
		c-0.1,0.2-0.1,0.2-0.4,0.2c-0.6,0-1.1,0-1.5,0s-0.7,0-0.9,0c-0.1,0-0.3,0-0.5,0s-0.4,0-0.6,0c-0.1,0-0.2,0-0.2-0.1
		c0,0,0-0.1,0.1-0.1s0.2,0,0.3,0c0.2,0,0.2-0.2,0.2-0.4c0-0.3,0-0.9,0-1.6V95.9L106.5,95.9z"/>
	<path d="M123,99.4c-0.1-0.1-0.2-0.1-0.2-0.3c0-0.4,0-0.9,0-1s0-0.2,0.1-0.2c0.1,0,0.1,0.1,0.1,0.1c0,0.1,0,0.3,0.1,0.4
		c0.2,0.6,0.8,0.8,1.3,0.8c0.7,0,1.1-0.4,1.1-1c0-0.3-0.1-0.7-0.8-1.1l-0.5-0.3c-0.9-0.6-1.2-1.1-1.2-1.7c0-0.9,0.9-1.5,2-1.5
		c0.5,0,0.9,0.1,1.1,0.1c0.1,0,0.1,0,0.1,0.1s0,0.3,0,0.9c0,0.2,0,0.2-0.1,0.2s-0.1,0-0.1-0.1s0-0.3-0.2-0.5
		c-0.1-0.1-0.4-0.4-0.9-0.4c-0.6,0-1.1,0.3-1.1,0.8c0,0.3,0.1,0.6,0.8,1L125,96c1.1,0.6,1.4,1.2,1.4,1.9c0,0.6-0.2,1-0.8,1.4
		c-0.4,0.3-0.9,0.3-1.3,0.3C123.8,99.6,123.3,99.6,123,99.4"/>
	<path d="M136.8,96.2L136.8,96.2V96c0-1.2,0-1.4,0-1.7s-0.1-0.3-0.3-0.4c-0.1,0-0.2,0-0.3,0c-0.1,0-0.1,0-0.1-0.1s0.1-0.1,0.2-0.1
		c0.4,0,1,0,1.2,0c0.2,0,0.7,0,1,0c0.1,0,0.2,0,0.2,0.1s-0.1,0.1-0.1,0.1c-0.1,0-0.1,0-0.2,0c-0.2,0-0.3,0.1-0.3,0.4
		c0,0.2,0,0.5,0,1.6v1.4c0,0.7,0,1.3,0,1.6c0,0.2,0.1,0.4,0.3,0.4c0.1,0,0.3,0,0.4,0c0.1,0,0.1,0,0.1,0.1s-0.1,0.1-0.2,0.1
		c-0.5,0-1,0-1.3,0c-0.2,0-0.7,0-1.1,0c-0.1,0-0.2,0-0.2-0.1c0,0,0-0.1,0.1-0.1c0.1,0,0.2,0,0.3,0c0.2,0,0.2-0.2,0.2-0.4
		c0-0.3,0-0.9,0-1.6v-0.6l0,0h-3h-0.1v0.6c0,0.7,0,1.3,0,1.6c0,0.2,0.1,0.4,0.3,0.4c0.1,0,0.3,0,0.4,0c0.1,0,0.1,0,0.1,0.1
		s-0.1,0.1-0.2,0.1c-0.5,0-1.1,0-1.3,0s-0.7,0-1,0c-0.1,0-0.2,0-0.2-0.1c0,0,0-0.1,0.1-0.1s0.2,0,0.3,0c0.2,0,0.2-0.2,0.2-0.4
		c0-0.3,0-0.9,0-1.6v-1.4c0-1.2,0-1.4,0-1.6c0-0.3-0.1-0.3-0.3-0.4c-0.1,0-0.2,0-0.3,0c-0.1,0-0.1,0-0.1-0.1s0.1-0.1,0.2-0.1
		c0.4,0,1,0,1.2,0c0.2,0,0.7,0,1.1,0c0.1,0,0.2,0,0.2,0.1s0,0.1-0.1,0.1c-0.1,0-0.1,0-0.2,0c-0.2,0-0.3,0.1-0.3,0.4
		c0,0.2,0,0.5,0,1.7v0.2c0,0,0,0.1,0.1,0.1h3C136.8,96.3,136.8,96.2,136.8,96.2z"/>
	<path d="M145,95.9c0-1.2,0-1.4,0-1.6c0-0.3-0.1-0.4-0.3-0.4c-0.1,0-0.2,0-0.3,0c-0.1,0-0.1,0-0.1-0.1c0,0,0.1-0.1,0.2-0.1
		c0.3,0,0.8,0,1.1,0c0.2,0,0.7,0,1,0c0.1,0,0.2,0,0.2,0.1s0,0.1-0.1,0.1c-0.1,0-0.1,0-0.2,0c-0.2,0-0.3,0.1-0.3,0.4
		c0,0.2,0,0.5,0,1.6v1.4c0,0.7,0,1.4,0,1.7c0,0.2,0.1,0.3,0.3,0.4c0.1,0,0.3,0,0.4,0c0.1,0,0.1,0,0.1,0.1s-0.1,0.1-0.2,0.1
		c-0.5,0-1.1,0-1.3,0s-0.7,0-1,0c-0.1,0-0.2,0-0.2-0.1c0,0,0-0.1,0.1-0.1c0.1,0,0.2,0,0.3,0c0.2,0,0.2-0.1,0.2-0.4s0-0.9,0-1.7v-1.4
		H145z"/>
	<path d="M153.2,95.9c0-1.2,0-1.4,0-1.6c0-0.3-0.1-0.3-0.3-0.4c-0.1,0-0.2,0-0.3,0c-0.1,0-0.1,0-0.1-0.1s0.1-0.1,0.2-0.1
		c0.4,0,0.9,0,1.1,0c0.3,0,1,0,1.2,0c0.5,0,1.1,0,1.5,0.3c0.2,0.2,0.6,0.5,0.6,1.1s-0.3,1.1-1.1,1.7c0.7,0.9,1.3,1.6,1.7,2
		c0.4,0.4,0.7,0.5,0.8,0.5c0.1,0,0.1,0,0.2,0c0.1,0,0.1,0,0.1,0.1s-0.1,0.1-0.2,0.1h-0.8c-0.4,0-0.7,0-0.9-0.2
		c-0.3-0.2-0.6-0.5-1.1-1.1c-0.3-0.4-0.6-0.9-0.8-1.1l-0.1-0.1h-0.7c0,0-0.1,0-0.1,0.1v0.1c0,0.7,0,1.3,0,1.6c0,0.2,0.1,0.4,0.3,0.4
		c0.1,0,0.3,0,0.4,0s0.1,0,0.1,0.1s-0.1,0.1-0.2,0.1c-0.5,0-1.1,0-1.2,0c-0.2,0-0.7,0-1,0c-0.1,0-0.2,0-0.2-0.1c0,0,0-0.1,0.1-0.1
		c0.1,0,0.2,0,0.3,0c0.2,0,0.2-0.2,0.2-0.4c0-0.3,0-0.9,0-1.6v-1.3H153.2z M154.3,96.5c0,0.1,0,0.1,0.1,0.1c0.2,0.1,0.4,0.1,0.6,0.1
		c0.3,0,0.4,0,0.6-0.1c0.2-0.2,0.5-0.5,0.5-1.1c0-1.1-0.7-1.4-1.2-1.4c-0.2,0-0.4,0-0.5,0c-0.1,0-0.1,0-0.1,0.1V96.5L154.3,96.5z"/>
	<path d="M164.7,94.2h-1.2c-0.5,0-0.7,0.1-0.8,0.2c-0.1,0.1-0.1,0.2-0.1,0.3s0,0.1-0.1,0.1s-0.1,0-0.1-0.1s0.2-0.9,0.2-0.9
		c0-0.1,0-0.1,0.1-0.1c0.1,0,0.1,0.1,0.3,0.1s0.5,0,0.8,0h3.2c0.3,0,0.4,0,0.5,0s0.2,0,0.2,0c0.1,0,0.1,0,0.1,0.2s0,0.7,0,0.9
		c0,0.1,0,0.1-0.1,0.1c-0.1,0-0.1,0-0.1-0.2v-0.1c0-0.2-0.2-0.4-0.9-0.4h-1v3.1c0,0.7,0,1.3,0,1.6c0,0.2,0.1,0.4,0.3,0.4
		c0.1,0,0.3,0,0.4,0c0.1,0,0.1,0,0.1,0.1s-0.1,0.1-0.2,0.1c-0.5,0-1.1,0-1.3,0s-0.7,0-1,0c-0.1,0-0.2,0-0.2-0.1c0,0,0-0.1,0.1-0.1
		c0.1,0,0.2,0,0.3,0c0.2,0,0.2-0.2,0.2-0.4c0-0.3,0-0.9,0-1.6v-3.2H164.7z"/>
	<path d="M174,93.8c0-0.1,0.1-0.2,0.2-0.2c0.1,0,0.1,0,0.2,0.2l2.1,4.3l2.1-4.3c0.1-0.1,0.1-0.2,0.2-0.2c0.1,0,0.2,0.1,0.2,0.2
		l0.7,4.7c0.1,0.5,0.1,0.7,0.4,0.8c0.2,0.1,0.4,0.1,0.5,0.1c0.1,0,0.1,0,0.1,0.1s-0.1,0.1-0.2,0.1c-0.2,0-1.3,0-1.6,0
		c-0.2,0-0.2,0-0.2-0.1c0,0,0-0.1,0.1-0.1c0,0,0.1-0.1,0-0.3l-0.4-3.3l0,0l-1.7,3.4c-0.2,0.4-0.2,0.4-0.3,0.4
		c-0.1,0-0.2-0.2-0.3-0.4c-0.2-0.4-0.8-1.5-0.9-1.7c-0.1-0.1-0.5-1.1-0.8-1.6l0,0l-0.4,3c0,0.1,0,0.2,0,0.4c0,0.1,0.1,0.2,0.2,0.2
		c0.1,0,0.2,0,0.3,0s0.1,0,0.1,0.1s-0.1,0.1-0.2,0.1c-0.3,0-0.7,0-0.8,0c-0.2,0-0.5,0-0.8,0c-0.1,0-0.1,0-0.1-0.1c0,0,0-0.1,0.1-0.1
		c0.1,0,0.1,0,0.2,0c0.2,0,0.3-0.3,0.3-0.6L174,93.8L174,93.8z"/>
	<path d="M187.1,97.6C187,97.6,187,97.6,187.1,97.6l-0.5,1.1c-0.1,0.2-0.1,0.4-0.1,0.5s0.1,0.2,0.3,0.2h0.1c0.1,0,0.1,0,0.1,0.1
		s0,0.1-0.1,0.1c-0.3,0-0.6,0-0.9,0c-0.1,0-0.5,0-0.9,0c-0.1,0-0.1,0-0.1-0.1c0,0,0-0.1,0.1-0.1c0.1,0,0.2,0,0.2,0
		c0.4-0.1,0.5-0.3,0.7-0.7l2.1-4.8c0.1-0.2,0.2-0.3,0.2-0.3c0.1,0,0.2,0.1,0.2,0.2c0.2,0.4,1.5,3.5,2,4.7c0.3,0.7,0.5,0.8,0.7,0.8
		c0.1,0,0.2,0,0.3,0s0.1,0,0.1,0.1s0,0.1-0.3,0.1s-0.9,0-1.5,0c-0.1,0-0.2,0-0.2-0.1c0,0,0-0.1,0.1-0.1c0.1,0,0.1-0.1,0.1-0.2
		l-0.6-1.6c0,0,0-0.1-0.1-0.1h-2C187.1,97.4,187.1,97.6,187.1,97.6z M188.8,97.1L188.8,97.1l-0.7-2V95c0,0,0,0,0,0.1l-0.8,1.9v0.1
		H188.8L188.8,97.1z"/>
	<path d="M198,96.3L198,96.3c0.3-0.3,1.5-1.4,1.7-1.7c0.2-0.3,0.4-0.4,0.4-0.6c0-0.1,0-0.1-0.1-0.2c-0.1,0-0.1,0-0.1-0.1
		s0-0.1,0.1-0.1c0.2,0,0.6,0,0.8,0s0.7,0,0.9,0c0.1,0,0.1,0,0.1,0.1s0,0.1-0.1,0.1c-0.1,0-0.3,0-0.5,0.1c-0.3,0.1-0.5,0.3-0.8,0.6
		c-0.3,0.2-1.4,1.4-1.7,1.6c0.3,0.4,1.8,2,2.2,2.3c0.4,0.3,0.7,0.7,1.1,0.8c0.2,0.1,0.4,0.1,0.5,0.1s0.1,0,0.1,0.1s0,0.1-0.2,0.1
		h-0.7c-0.2,0-0.4,0-0.6,0c-0.4,0-0.7-0.2-1-0.5c-0.3-0.3-1.9-2.1-2-2.3l-0.1-0.1l0,0v0.7c0,0.7,0,1.3,0,1.6c0,0.2,0.1,0.4,0.3,0.4
		c0.1,0,0.3,0,0.4,0s0.1,0,0.1,0.1s-0.1,0.1-0.2,0.1c-0.4,0-1,0-1.2,0s-0.7,0-1,0c-0.1,0-0.2,0-0.2-0.1c0,0,0-0.1,0.1-0.1
		c0.1,0,0.2,0,0.3,0c0.2,0,0.2-0.2,0.2-0.4c0-0.3,0-0.9,0-1.6v-1.4c0-1.2,0-1.4,0-1.6c0-0.3-0.1-0.3-0.3-0.4c-0.1,0-0.2,0-0.3,0
		s-0.1,0-0.1-0.1s0.1-0.1,0.2-0.1c0.4,0,0.9,0,1.1,0c0.2,0,0.8,0,1,0c0.1,0,0.2,0,0.2,0.1s0,0.1-0.1,0.1s-0.1,0-0.2,0
		c-0.2,0-0.3,0.1-0.3,0.4c0,0.2,0,0.5,0,1.6V96.3L198,96.3z"/>
	<path d="M207.7,95.9c0-1.2,0-1.4,0-1.6c0-0.3-0.1-0.3-0.3-0.4c-0.1,0-0.2,0-0.3,0c-0.1,0-0.1,0-0.1-0.1s0.1-0.1,0.2-0.1
		c0.4,0,0.9,0,1.1,0c0.3,0,2,0,2.2,0c0.1,0,0.3,0,0.3,0h0.1c0,0,0.1,0,0.1,0.1s0,0.1-0.1,0.5c0,0.1,0,0.4,0,0.5c0,0,0,0.1-0.1,0.1
		s-0.1,0-0.1-0.1s0-0.2-0.1-0.3s-0.1-0.2-0.5-0.3c-0.1,0-1.1,0-1.2,0c0,0-0.1,0-0.1,0.1v1.9c0,0,0,0.1,0.1,0.1c0.2,0,1.2,0,1.4,0
		s0.3,0,0.4-0.1c0.1-0.1,0.1-0.1,0.1-0.1s0.1,0,0.1,0.1s0,0.2-0.1,0.6c0,0.2,0,0.5,0,0.5c0,0.1,0,0.2-0.1,0.2c-0.1,0-0.1,0-0.1-0.1
		s0-0.2,0-0.3c0-0.2-0.1-0.3-0.4-0.3c-0.1,0-1.1,0-1.3,0c0,0,0,0,0,0.1v0.6c0,0.3,0,0.9,0,1.1c0,0.5,0.3,0.6,1.1,0.6
		c0.2,0,0.5,0,0.8-0.1c0.2-0.1,0.3-0.3,0.3-0.6c0-0.1,0-0.1,0.1-0.1c0.1,0,0.1,0.1,0.1,0.2c0,0.2-0.1,0.7-0.1,0.9
		c-0.1,0.2-0.1,0.2-0.4,0.2c-0.6,0-1.1,0-1.5,0s-0.7,0-0.9,0c-0.1,0-0.3,0-0.5,0c-0.2,0-0.4,0-0.6,0c-0.1,0-0.2,0-0.2-0.1
		c0,0,0-0.1,0.1-0.1c0.1,0,0.2,0,0.3,0c0.2,0,0.2-0.2,0.2-0.4c0-0.3,0-0.9,0-1.6V95.9L207.7,95.9z"/>
	<path d="M217.2,95.9c0-1.2,0-1.4,0-1.6c0-0.3-0.1-0.3-0.3-0.4c-0.1,0-0.2,0-0.3,0c-0.1,0-0.1,0-0.1-0.1s0.1-0.1,0.2-0.1
		c0.4,0,0.9,0,1.1,0c0.3,0,1,0,1.2,0c0.5,0,1.1,0,1.5,0.3c0.2,0.2,0.6,0.5,0.6,1.1s-0.3,1.1-1.1,1.7c0.7,0.9,1.3,1.6,1.7,2
		c0.4,0.4,0.7,0.5,0.9,0.5c0.1,0,0.1,0,0.2,0c0.1,0,0.1,0,0.1,0.1s-0.1,0.1-0.2,0.1h-0.8c-0.4,0-0.7,0-0.9-0.2
		c-0.3-0.2-0.6-0.5-1.1-1.1c-0.3-0.4-0.7-0.9-0.8-1.1L219,97h-0.7c0,0-0.1,0-0.1,0.1v0.1c0,0.7,0,1.3,0,1.6c0,0.2,0.1,0.4,0.3,0.4
		c0.1,0,0.3,0,0.4,0c0.1,0,0.1,0,0.1,0.1s-0.1,0.1-0.2,0.1c-0.5,0-1.1,0-1.2,0c-0.2,0-0.7,0-1,0c-0.1,0-0.2,0-0.2-0.1
		c0,0,0-0.1,0.1-0.1c0.1,0,0.2,0,0.3,0c0.2,0,0.2-0.2,0.2-0.4c0-0.3,0-0.9,0-1.6v-1.3H217.2z M218.2,96.5c0,0.1,0,0.1,0.1,0.1
		c0.2,0.1,0.4,0.1,0.6,0.1c0.3,0,0.4,0,0.6-0.1c0.2-0.2,0.5-0.5,0.5-1.1c0-1.1-0.7-1.4-1.2-1.4c-0.2,0-0.4,0-0.5,0
		c-0.1,0-0.1,0-0.1,0.1V96.5L218.2,96.5z"/>
</g>
</svg>
