<svg id="Layer_1" data-name="Layer 1" xmlns="http://www.w3.org/2000/svg" viewBox="0 0 76 76"><defs><style>.cls-1{fill:#e11837;fill-rule:evenodd;}.cls-2{fill:#fff;}</style></defs><title>ID-logo</title><path class="cls-1" d="M69.72,1.16a5.13,5.13,0,0,1,5.12,5.13V69.71a5.13,5.13,0,0,1-5.12,5.13H6.29a5.12,5.12,0,0,1-5.13-5.13V6.29A5.13,5.13,0,0,1,6.29,1.16Z"/><path class="cls-2" d="M18.8,62.31h2.34a.38.38,0,0,0,.35-.28c0-1.12,0-2.28,0-3.41a.39.39,0,0,0-.39-.29H18.8Zm28-5.53c.35,0,.75,0,1.12,0V63.3a.93.93,0,0,1-.81.76H46V57.48a.9.9,0,0,1,.67-.68l0,0M14.2,56.69c.34,0,.73,0,1.1,0l0,6.58a.92.92,0,0,1-.88.72h-1V57.44a1,1,0,0,1,.7-.74h.06m41.91,0a.83.83,0,0,1,.9.41l1.81,2.16c.19-.21.37-.43.55-.64l1.44-1.72a.84.84,0,0,1,1-.06A.81.81,0,0,1,62,57.91l-2.3,2.74c0,.86,0,1.75,0,2.59a.94.94,0,0,1-1,.74h-.83V60.6l-2.25-2.69a.81.81,0,0,1,.17-1.09.77.77,0,0,1,.26-.12l0,0m-6.53,0,5.3,0c0,.31,0,.64,0,.92a.78.78,0,0,1-.68.68h-1.3v5A.92.92,0,0,1,52,64H51V58.27H48.9c0-.33,0-.71,0-1a.79.79,0,0,1,.61-.56s0,0,0,0m-9.81,0,5.32,0c0,.31,0,.64,0,.93a.76.76,0,0,1-.74.67H43.09v5a.91.91,0,0,1-.87.73h-1V58.27H39.12c0-.31,0-.64,0-.94a.77.77,0,0,1,.58-.62l.06,0m-14,0h4.72a7.1,7.1,0,0,1,0,.93.73.73,0,0,1-.65.53h-3v1.24c.93,0,1.87,0,2.78,0a.65.65,0,0,1,.48.79.63.63,0,0,1-.59.52H26.9v1.81c1,0,2.06,0,3.06,0a.72.72,0,0,1,.56.64,7.24,7.24,0,0,1,0,.81H25.05V57.41a.91.91,0,0,1,.7-.7l0,0m6.82,0a1,1,0,0,1,1.13.61l2.46,3.5c0-1.14,0-2.31,0-3.4a.94.94,0,0,1,.81-.72h1l0,6.6A.9.9,0,0,1,37,64a1.09,1.09,0,0,1-.75-.6l-2.51-3.56c0,1.14,0,2.32,0,3.43a.92.92,0,0,1-.88.76h-1V57.41a.94.94,0,0,1,.7-.71h.05M16.94,64V56.67l5.08,0a1.6,1.6,0,0,1,1.3,1.61c0,1.45,0,2.94,0,4.36A1.57,1.57,0,0,1,21.76,64Z"/><path class="cls-2" d="M38,21.81s0,.08,0,.09l0,19.17H51.89a1.91,1.91,0,0,0,1.86-2V23.82a1.83,1.83,0,0,0-1.53-2c-4.57-.11-9.51,0-14.26-.05m-15.65-7.9V45.62c-.22,2-1.9,3.31-4.2,3.48-1.51.11-3.12,0-4.68,0V17.53a3.71,3.71,0,0,1,3.5-3.62h5.38M29,49.37V13.91H56.14a7,7,0,0,1,6.51,7l-.06,22c-.11,3.6-3.17,6.32-7.12,6.41Z"/><path class="cls-2" d="M64.77,48.89a1.46,1.46,0,0,1-2.06,0,1.47,1.47,0,0,1,0-2.11,1.51,1.51,0,0,1,1-.4,1.39,1.39,0,0,1,1,.44,1.37,1.37,0,0,1,.43,1,1.44,1.44,0,0,1-.44,1M62.89,47a1.19,1.19,0,0,0-.35.85,1.16,1.16,0,0,0,.36.86,1.18,1.18,0,0,0,1.7,0,1.17,1.17,0,0,0,.35-.86A1.15,1.15,0,0,0,64.6,47a1.11,1.11,0,0,0-.85-.36,1.18,1.18,0,0,0-.86.36m.22,1.66V47h.79a.75.75,0,0,1,.32.09.4.4,0,0,1,.21.39.37.37,0,0,1-.11.29.54.54,0,0,1-.28.11.45.45,0,0,1,.23.1.4.4,0,0,1,.14.36v.19a.09.09,0,0,1,0,0l0,0H64a.61.61,0,0,1,0-.22,1.46,1.46,0,0,0,0-.2.17.17,0,0,0-.12-.11.26.26,0,0,0-.14,0h-.19v.57Zm.77-1.3a.52.52,0,0,0-.24,0h-.11v.48h.17a.39.39,0,0,0,.23-.06.22.22,0,0,0,.08-.2.17.17,0,0,0-.13-.18"/></svg>