<?xml version="1.0" encoding="UTF-8"?>
<svg id="Layer_2" data-name="Layer 2" xmlns="http://www.w3.org/2000/svg" viewBox="0 0 507.75 129.08">
  <defs>
    <style>
      .cls-1 {
        fill: #1d1d1b;
        stroke-width: 0px;
      }
    </style>
  </defs>
  <g id="Layer_1-2" data-name="Layer 1">
    <g>
      <path class="cls-1" d="M289.76,20.34c-.4-.74-.9-.79-1.7-.84-1.5-.12-2.65.17-4.14.34-3.24.38-6.54.91-9.83,1.41-1.65.26-3.3.5-4.94.72-.85.1-4.59.53-4.59.53,0,0-.55-.7-.75-.91-.3-.24-.6-.46-1-.46-1.6-.14-5.44-.14-5.44-.14,0,0-1.25-.62-2.05-.93-.9-.32-1.69-.84-2.3-1.59-.3-.43-.45-.86-.6-1.37-.1-.62-.65-1.03-1.2-1.37-.3-.24-.65-.5-.95-.81-.65-.55-1.15-1.2-1.65-1.87-1-1.22-1.89-2.5-3.09-3.57-.5-.5-1.15-.99-1.8-1.32-.4-.19-.75-.33-1.1-.46h-.05c-.25-.02-.45-.05-.65-.07-.15-.02-.3-.02-.4-.02h-.4v-.38c0-.43.1-1.1-.2-1.49-.05-.05-.2-.19-.2-.26,1.4.24,2.64-.34,2.94-.5.3-.17.85-.79-.1-.82-.4-.02-2.24-.02-2.74-.4.6-3.22-3.64-4.37-5.89-3.44-1.5.6-2.35.84-2.9,2.4-.7,1.92-.6,3.38.35,5.19.35.64,1.35,3.23,2.55,2.8-3.5,2.62-2.5,5.44-2.55,5.59-.05.21-.15,1.2-.1,1.49.15.65.25,1.18.2,1.82-.05.55.1,1.05.3,1.56.1.24.15.52.35.71.1.19.3.29.45.46.15.19.25.38.45.53.3.31.9.48,1.1.89.2.53.3,1.18.5,1.73.2.74.85,1.2,1.5,1.65.4.26.7.38.85.82.15.28.2.65.35.98.25.77.1,1.75-.05,2.54-.25,1.16-.3,2.81.05,3.93.2.41.35.72.3,1.2,0,.28-.05.57-.1.89,0,.14.1.89.05.96-.4.58-.5,1.37-.6,2.02-.05.34-.15.62-.25.94v.79c-.1.29-.15.55-.2.84-.1.33-.1.67-.15,1-.1.43-.15.86-.25,1.32,0,.24.05.5,0,.77-.2.04-.3.24-.25.48.05.1.15.12.15.24s-.05.21-.1.33c-.6.1-.6.82-1,1.16-.45.33-.8.77-1.3,1.08-.3.15-.4.38-.65.58-.25.26-.7.55-.85.89-.35.6-.5,1.49-.25,2.13.1.31.3.77.25,1.12-.15.72-1.15.84-1.7,1.15-.55.34-1,.82-1.4,1.37-.75,1.15-1.1,2.5-1.79,3.65-.3.48-.65.91-1,1.3-.2.17-.39.41-.59.53-.3.12-.35-.05-.6-.07-.3-.02-.6.07-.85.03-.7-.07-1.15,1.08-1.75,1.46-.6.38-1,.86-1.5,1.39-.55.53-1,1.13-1.35,1.78-.25.5-.5.98-.65,1.51-.15.5-.05.69.3,1.08.3.34.5.69,1.1.72.4.05.9-.07,1.2-.38.8-.77,1.8-1.27,2.75-1.85.74-.45,1.25-1.2,1.94-1.75.2-.21.5-.69.6-1.01.2-.34.15-.36.4-.67.5-.57,1.25-1.1,1.89-1.61,1.45-1.25,3-2.35,4.74-3.24.15-.05.25-.09.35-.17.2-.12.75-.05,1-.07.3-.03.65-.07,1-.15.5-.12,1.1-.26,1.6-.5,1-.41,1.8-1.03,2.5-1.78,1.4-1.56,1.99-3.57,2.6-5.52.6-2.08,1.1-4.22,1.99-6.21.4-.77.8-1.51,1.3-2.18.5-.6,1.35-1.9,2.2-1.41.5.29.95.62,1.29.99.4.4.9.69,1.35,1.03.45.36.95.58,1.35.96.5.46.85,1.15,1.2,1.71.2.36.5.72.7,1.1.1.33.2.69.4,1,.4.65,1,1.32,1.55,1.85.75.6,1.25,1.39,2.15,1.85.65.36,1.3.65,1.8,1.27.2.24.2.53.5.67.3.19.55.22.9.22.55-.03,1.15-.22,1.6.17.3.19.5.43.75.65.8.72,1.6,1.42,2.4,2.13.75.68,1.55,1.37,2.24,2.04.4.31.8.64,1.2,1.01.3.26.3.65.2,1.03,0,.19-.1.31-.1.5v.48c0,.5-.45,1.08-.3,1.56.1.21.4.41.6.53.15.12.4.19.5.33.6.6.8,1.49,1.4,2.11.5.55,1.05,1.12,1.7,1.49.6.28,1.2.36,1.8.22.7-.15,1.7-.46,2.1-1.06.4-.6-.05-1.18-.6-1.53-1-.75-1.4-1.82-1.99-2.91-.35-.72-.8-1.34-1.3-1.94-.2-.24-.4-.46-.5-.72-.25-.41-.6-.77-.8-1.18-.1-.17-.05-.38-.1-.58-.1-.24-.2-.46-.3-.67-.25-.46-.5-.86-.7-1.3-.9-1.68-2.1-3.09-3.09-4.68-.15-.28-.4-.57-.6-.89-.1-.24,0-.43,0-.7.05-1.37-.7-1.89-1.5-2.9-.2-.32-.6-.53-.8-.87-.1-.17-.1-.31-.1-.48-.1-.17-.25-.33-.35-.48-.25-.29-.45-.63-.7-.91-.55-.63-1.05-1.2-1.6-1.78-1.14-1.2-2.3-2.35-3.44-3.53-2.1-2.23-4.2-4.78-4.74-7.84-.95-2.93-4.84-4.9-4.64-7.48,0,.19,1.79-.43,1.9-.45.8-.17,1.15.55,1.9.52.2,0,.2.46-.05.46-.3.03-.4.48-.45.58-.05.24,0,.53.2.72.25.26.5.1.75.19.45.19.65.67,1.15.79.35.07.6.12.85.03.45-.19.6-.31,1.15-.24.4.05.5.05.8-.24.3-.31.5-.46.95-.67.45-.19.75-.24,1.25-.05.5.17,1,.14,1.6,0,.55-.17,1.09.1,1.65.03.5-.1.89-1.13.89-1.13,0,0,.5-.09.85-.14,1.25-.14,2.5-.17,3.75-.24,3.29-.19,6.64-.31,9.88-.53,2.15-.14,4.29-.19,6.44-.31,1.15-.07,2.9-.02,3.34-1.3.15-.53.35-1.17.15-1.68"/>
      <path class="cls-1" d="M15.44,92.08v22.27c0,2.66-.19,4.64-.56,5.95-.37,1.48-1,2.74-1.89,3.76-1.74,2.04-4.04,3.05-6.91,3.05-2.17,0-4.2-.56-6.08-1.69l2.54-4.44c1.26.85,2.44,1.27,3.54,1.27,1.54,0,2.62-.59,3.21-1.76.62-1.17.94-3.22.94-6.15v-22.27h5.21Z"/>
    </g>
    <path class="cls-1" d="M55.04,118.14h-14.73l-3.83,8.36h-5.59l17.03-36.57,16.43,36.57h-5.68l-3.61-8.36ZM52.93,113.25l-5.1-11.7-5.35,11.7h10.45Z"/>
    <polygon class="cls-1" points="79.76 126.49 87 89.5 98.81 116.24 111.05 89.5 117.56 126.49 112.23 126.49 108.91 105.72 98.73 128.08 88.83 105.7 85.13 126.49 79.76 126.49"/>
    <polygon class="cls-1" points="156.11 96.96 142.32 96.96 142.32 105.23 155.71 105.23 155.71 110.11 142.32 110.11 142.32 121.61 156.11 121.61 156.11 126.49 137.12 126.49 137.12 92.08 156.11 92.08 156.11 96.96"/>
    <path class="cls-1" d="M194.67,97.21l-4.21,2.49c-.79-1.37-1.54-2.26-2.25-2.67-.74-.48-1.7-.71-2.88-.71-1.44,0-2.64.41-3.59,1.22-.95.8-1.43,1.81-1.43,3.03,0,1.68,1.25,3.03,3.74,4.06l3.43,1.41c2.79,1.13,4.83,2.51,6.13,4.13,1.29,1.63,1.94,3.62,1.94,5.99,0,3.17-1.05,5.78-3.16,7.84-2.13,2.08-4.76,3.12-7.91,3.12-2.99,0-5.45-.88-7.4-2.65-1.92-1.77-3.11-4.26-3.59-7.47l5.26-1.16c.24,2.02.65,3.42,1.25,4.19,1.07,1.48,2.63,2.23,4.68,2.23,1.62,0,2.96-.54,4.04-1.63,1.07-1.08,1.6-2.46,1.6-4.12,0-.67-.09-1.28-.28-1.84-.18-.56-.47-1.07-.87-1.54-.39-.47-.9-.91-1.53-1.31-.62-.41-1.37-.8-2.23-1.17l-3.32-1.38c-4.71-1.99-7.07-4.9-7.07-8.74,0-2.59.99-4.75,2.96-6.49,1.98-1.75,4.44-2.63,7.38-2.63,3.97,0,7.07,1.93,9.29,5.8"/>
    <polygon class="cls-1" points="244.29 105.54 259.13 105.54 259.13 92.08 264.33 92.08 264.33 126.49 259.13 126.49 259.13 110.43 244.29 110.43 244.29 126.49 239.1 126.49 239.1 92.08 244.29 92.08 244.29 105.54"/>
    <path class="cls-1" d="M305.06,118.14h-14.73l-3.83,8.36h-5.59l17.03-36.57,16.43,36.57h-5.68l-3.61-8.36ZM302.95,113.25l-5.1-11.7-5.35,11.7h10.45Z"/>
    <path class="cls-1" d="M342.64,111.83l10.65,14.66h-6.35l-9.83-14.08h-.94v14.08h-5.19v-34.41h6.08c4.55,0,7.83.85,9.85,2.56,2.23,1.9,3.34,4.41,3.34,7.53,0,2.44-.7,4.53-2.1,6.28-1.4,1.75-3.24,2.88-5.53,3.37M336.18,107.88h1.65c4.92,0,7.38-1.88,7.38-5.64,0-3.52-2.39-5.28-7.17-5.28h-1.85v10.92Z"/>
    <polygon class="cls-1" points="390.46 92.08 380.81 115.93 371.29 92.08 365.61 92.08 380.7 129.08 396.14 92.08 390.46 92.08"/>
    <polygon class="cls-1" points="431.69 96.96 417.9 96.96 417.9 105.23 431.29 105.23 431.29 110.11 417.9 110.11 417.9 121.61 431.69 121.61 431.69 126.49 412.7 126.49 412.7 92.08 431.69 92.08 431.69 96.96"/>
    <path class="cls-1" d="M470.25,97.21l-4.21,2.49c-.79-1.37-1.53-2.26-2.25-2.67-.74-.48-1.7-.71-2.87-.71-1.44,0-2.64.41-3.59,1.22-.95.8-1.43,1.81-1.43,3.03,0,1.68,1.25,3.03,3.74,4.06l3.43,1.41c2.79,1.13,4.84,2.51,6.13,4.13,1.29,1.63,1.94,3.62,1.94,5.99,0,3.17-1.06,5.78-3.17,7.84-2.12,2.08-4.76,3.12-7.91,3.12-2.99,0-5.45-.88-7.4-2.65-1.92-1.77-3.11-4.26-3.59-7.47l5.26-1.16c.24,2.02.65,3.42,1.25,4.19,1.07,1.48,2.63,2.23,4.68,2.23,1.61,0,2.96-.54,4.03-1.63,1.07-1.08,1.6-2.46,1.6-4.12,0-.67-.09-1.28-.28-1.84-.19-.56-.48-1.07-.87-1.54-.39-.47-.9-.91-1.53-1.31-.63-.41-1.37-.8-2.23-1.17l-3.32-1.38c-4.71-1.99-7.07-4.9-7.07-8.74,0-2.59.99-4.75,2.97-6.49,1.97-1.75,4.43-2.63,7.38-2.63,3.97,0,7.06,1.93,9.29,5.8"/>
    <polygon class="cls-1" points="486.75 92.08 486.75 96.96 494.67 96.96 494.67 126.49 499.86 126.49 499.86 96.96 507.75 96.96 507.75 92.08 486.75 92.08"/>
  </g>
</svg>