<svg xmlns="http://www.w3.org/2000/svg" viewBox="20 265 610 125">
<style type="text/css">
	.st0{fill:#D10229;}
</style>
<path d="M548.1,338.5h24c1.2,5.4,4.8,9,15.6,9c9.6,0,15-2.4,15-7.2c0-3.6-1.8-4.8-12-6.6l-19.2-2.4c-13.2-1.8-21-6-21-18.6
	c0-18,17.4-22.2,35.4-22.2c30,0,37.2,9.6,38.4,22.2h-24c-1.2-6.6-8.4-8.4-14.4-8.4c-5.4,0-13.8,0.6-13.8,6.6c0,3,1.8,4.8,10.8,6
	l14.4,1.8c22.2,2.4,28.8,8.4,28.8,20.4c0,19.8-22.2,22.2-40.2,22.2C561.9,361.3,549.3,354.7,548.1,338.5z M175.9,307.9l39.6-38.4
	h31.8l-39.6,36l42.6,53.3h-31.8l-29.4-38.4l-13.8,12v26.4h-24v-89.3h24v38.4H175.9z M312.6,321.7c0-9-4.8-13.2-14.4-13.2
	s-18,4.8-18,19.2v31.8h-21v-65.3h20.4v9.6c4.2-5.4,14.4-10.8,27-10.8c10.8,0,28.2,4.2,28.2,24v43.8h-21v-39H312.6z M351.5,294.1
	h22.2v65.3h-21v-65.3H351.5z M389.3,294.1h20.4v12.6c7.8-9.6,13.8-15,26.4-15c2.4,0,5.4,0,7.8,0.6v20.4c-3.6-1.2-7.8-1.8-11.4-1.8
	c-14.4,0-21,7.2-21,20.4v28.2h-22.2C389.3,359.5,389.3,294.1,389.3,294.1z M476.2,327.1c0,12,9,19.2,19.8,19.2
	c10.8,0,19.8-6.6,19.8-19.2c0-12-9-19.2-19.8-19.2C485.2,307.9,476.2,314.5,476.2,327.1z M455.2,383.4v-89.3h20.4v8.4
	c8.4-8.4,15.6-10.2,24.6-10.2c21,0,37.8,11.4,37.8,34.2c0,21.6-15.6,34.8-36.6,34.8c-12,0-20.4-3.6-25.2-9.6v31.8H455.2z
	 M349.7,278.5c0-5.4,5.4-9,12-9c7.2,0,12,4.2,12,9c0,5.4-5.4,9-12,9C354.5,288.1,349.7,283.9,349.7,278.5z"/>
<path class="st0" d="M116.6,316.9c0,25.2-20.4,45.6-45.6,45.6c-24.6,0-45-20.4-45-45.6c0-25.2,20.4-45.6,45.6-45.6
	C96.2,272,116.6,291.7,116.6,316.9z"/>
</svg>
