<?xml version="1.0" encoding="UTF-8"?>
<svg id="a" data-name="Layer 1" xmlns="http://www.w3.org/2000/svg" viewBox="0 0 692.8 298.8">
  <defs>
    <style>
      .b {
        stroke-width: 0px;
      }
    </style>
  </defs>
  <path class="b" d="M313.1,120.8c29.7,0,46.7-19.3,52-36.9l-23.7-8.6c-2.6,8.6-10.7,20.9-28.3,20.9s-31.6-12.8-31.6-35.5,14.6-35.1,31.1-35.1,24.8,11.1,27.4,21.1l24.2-8.8c-4.7-18.1-21.4-37.2-51.8-37.2-32.5,0-57.8,25.1-57.8,59.9s25.3,60.2,58.5,60.2h0Z"/>
  <path class="b" d="M427.6,120.8c27.2,0,45.1-16,51.1-35.8l-22.8-7.2c-3.7,11.1-12.1,19.7-28.3,19.7s-30.2-12.3-30.9-29.5h82.7c.2-.5.7-4.2.7-8.6,0-35.8-20.4-58.8-55.3-58.8-28.6,0-55,23.7-55,59.5,0,38.4,27.2,60.7,57.8,60.7h0ZM425.1,23.2c18.6,0,27.4,11.9,27.9,25.1h-55.5c.9-12.1,10.6-25.1,27.6-25.1Z"/>
  <path class="b" d="M583,43c0-22.5-13.2-42.3-48.1-42.3-27.9,0-45.5,17.4-47.6,36.9l24.6,5.6c1.2-11.4,9.1-20.4,23.2-20.4,14.9,0,21.4,7.7,21.4,17.2,0,4-1.9,7.2-8.4,8.1l-29,4.4c-19.3,2.8-34.1,13.9-34.1,34.1,0,17.9,14.6,34.1,38.3,34.1,18.3,0,29.5-9.3,34.8-17.9,0,9.1.9,13.7,1.2,14.4h25.1c-.2-1.2-1.4-7.9-1.4-18.1v-56.1h0ZM556.5,70.4c0,22.1-13,29.3-28.1,29.3-10.7,0-16.5-7-16.5-14.6,0-9.3,6.7-13.9,15.1-15.3l29.5-4.4v5h0Z"/>
  <path class="b" d="M652,.9c-12.5,0-26,5.3-33.5,18.4V4.2h-26.2v113.1h26.9V52c0-14.9,8.1-26.7,23.5-26.7,17,0,23.2,11.1,23.2,25.1v66.9h26.9V45.8c.1-24.9-13.2-44.9-40.8-44.9h0Z"/>
  <path class="b" d="M62,178.1c-17.4,0-30.4,8.1-35.5,17v-69H0v168.2h26.2v-15.1c6.5,10.9,18.8,17.9,34.8,17.9,33,0,53.2-25.8,53.2-59.9s-18.3-59.1-52.2-59.1h0ZM56.6,273.1c-17.2,0-30.4-13.5-30.4-35.8s13.2-35.3,30.4-35.3,30.4,12.8,30.4,35.3-12.7,35.8-30.4,35.8Z"/>
  <path class="b" d="M296.8,258.6v-52.5h23.5v-23.9h-23.5v-34.6h-24.4v17c0,10-5.3,17.6-17.4,17.6h-5.8v23.9h20.9v56.9c0,21.1,13,33.7,33.9,33.7,9.8,0,14.9-1.9,16.5-2.5v-22.3c-1.2.2-5.6.9-9.3.9-10,0-14.4-4.2-14.4-14.2h0Z"/>
  <path class="b" d="M376.9,258.6v-52.5h23.5v-23.9h-23.5v-34.6h-24.4v17c0,10-5.3,17.6-17.4,17.6h-5.8v23.9h20.9v56.9c0,21.1,13,33.7,33.9,33.7,9.8,0,14.9-1.9,16.5-2.5v-22.3c-1.2.2-5.6.9-9.3.9-10,0-14.4-4.2-14.4-14.2h0Z"/>
  <rect class="b" x="410.8" y="127.1" width="26.9" height="168.2"/>
  <path class="b" d="M500.3,178.7c-28.6,0-55,23.7-55,59.5,0,38.3,27.2,60.6,57.8,60.6,27.2,0,45.1-16,51.1-35.8l-22.8-7.2c-3.7,11.2-12.1,19.7-28.3,19.7s-30.2-12.3-30.9-29.5h82.7c.2-.5.7-4.2.7-8.6-.1-35.7-20.5-58.7-55.3-58.7h0ZM472.8,226.3c.9-12.1,10.7-25.1,27.6-25.1,18.6,0,27.4,11.9,27.9,25.1h-55.5Z"/>
  <path class="b" d="M248.6,225.1h0c-1.2-11.4-5.7-21.9-12.8-31.2-2-2.7-4.3-5.6-6.9-8.8l-18.3-22.3s-8.4-10.2-14.8-18l-13.2-16.1c-2.2-2.6-4.2-5.2-6.3-7.7-2.5-3.1-5.1-6.2-7.6-9.3l-.1-.1c-5.6-6.9-11.4-13.9-17.1-21-8.3-10.3-11.4-23.2-8.6-35.6,2.8-12,10.9-22,22.4-27.4,12.5-5.9,27-5.5,38.8,1,11.5,6.4,19.1,17.8,20.8,31.3,1.3,11-1.6,21-8.8,29.9-1.3,1.6-2.5,3.2-3.8,4.7l-.2-3.2c-.3-3.6-2-6.9-4.8-9.1-2.9-2.3-6.4-3.2-10.1-2.6-6.5,1-11.2,7.2-10.7,13.9l2.3,31.2c.5,6.7,6.1,11.9,12.8,11.9h1l31.2-2.3c6.3-.5,11.4-5.2,12.1-11.2.5-3.9-.8-7.7-3.5-10.5s-6.4-4.2-10.2-3.9l-1.2.1c.8-1,1.7-2.1,2.5-3.1,12.5-15.3,17.5-34.8,13.9-53.5-3.6-18.6-15.3-34.5-32.1-43.8-.7-.4-1.4-.7-2.1-1.1-.7-.4-1.4-.7-2-1-1.6-.8-3.3-1.5-5-2.1l-.4-.1c-.3-.1-.6-.2-.9-.4-.2-.1-.3-.1-.6-.2-6.8-2.3-13.9-3.5-20.9-3.5-4.7,0-9.4.5-14.1,1.6-27.6,5.8-47.9,28.6-50.7,57-.2,1.9-.3,3.9-.3,5.8v.9l.2,6.3h.2c1.2,11.3,5.5,22.1,12.5,31.4,4.4,5.9,9.1,11.6,13.7,17.1,1.9,2.3,3.8,4.6,5.7,6.9,5.4,6.6,10.7,13.1,16.1,19.7l1.5,1.9c-3.3,4-6.6,8.1-9.9,12.1l-.3.4c-8.2,9.9-16.6,20.2-24.8,30.4-8.3,10.3-13.4,22.2-14.7,34.9h0l-.2,3.9v2.1c-.1,14.9,5.1,29.5,14.6,40.9.3.4.6.7.9,1l.4.5c.5.5,1,1.1,1.4,1.6,12.3,13.3,29.7,21,47.8,21,13.5,0,26.5-4.1,37.5-11.9,1.2-.9,2.5-1.8,3.6-2.7.3-.2.5-.5.8-.7l.3-.3c1.1-1,2.2-2,3.3-3l.3-.3c.2-.2.4-.3.5-.5,1.3-1.3,2.6-2.7,3.7-4.1.1-.2.3-.3.4-.5l.2-.2c1-1.2,2-2.5,2.8-3.8l.2-.3c.2-.3.4-.5.5-.8.9-1.4,1.8-2.9,2.7-4.4.2-.5.5-.9.7-1.4l.2-.3c.6-1.1,1.1-2.2,1.6-3.4l.1-.3c.2-.5.5-1.1.7-1.7.5-1.3,1-2.7,1.6-4.3.2-.7.4-1.3.6-2,.5-1.8,1-3.4,1.3-5,0-.3.1-.5.1-.8l.1-.3c.3-1.6.6-3.3.8-4.9v-.4c0-.3.1-.5.1-.8.2-1.8.3-3.7.3-5.6v-.7l.2-6.9h0ZM221.6,248.9h0c-6.5,14.4-18,22.4-34.1,23.9-1.4.1-2.8.2-4.1.2-17.7,0-33.4-10.8-39-27.4-4.8-14.1-2.5-27.2,6.7-38.8,8.2-10.4,16.9-20.9,25.2-31l.2-.2c2.4-2.9,4.8-5.9,7.2-8.8.5.6,1,1.2,1.5,1.8,1.9,2.3,3.5,4.3,7.2,8.8l14.2,17.2c4.2,5,7.6,9.2,10.8,13.6,9.1,12.9,10.6,26.5,4.2,40.7h0Z"/>
</svg>