<svg xmlns="http://www.w3.org/2000/svg" viewBox="50 125 400 50">
<g>
<path d="M87.8,143.4c0-7.2-4.8-12.5-12.7-12.5H58.3v18.7h-4.1v6.4h4.1v11.6h6.4V156h8l7.4,11.6h8.2l-8.7-13.1
C84.3,152.9,87.8,148.8,87.8,143.4z M65,149.6v-12.3h9.8c4.7,0,6.6,2.9,6.6,6.1c0,3.3-2.2,6.2-6.6,6.2H65z M105,167.7h6.4v-36.7
H105V167.7z M139.6,167.5h6.4v-30.2h10.4v-6.4h-26.9v6.4h10.4v30.2H139.6L139.6,167.5z M174.1,130.9v21.9
c0,8.6,6.2,15.8,15.6,15.8c9.4,0,15.6-7.2,15.6-15.8v-21.9h-6.6v20.3c0,6.8-4.1,10.7-9.2,10.7s-9.2-4.1-9.2-10.7v-20.3
C180.3,130.9,174.1,130.9,174.1,130.9z M226.7,130.9v6.1h8l-12.7,30.6h6.8l2.7-6.8h14.8l2.7,6.8h7l-14.8-36.7
C241.3,130.9,226.7,130.9,226.7,130.9z M233.8,154.6l5.2-13l5.2,13H233.8L233.8,154.6z M300.3,152.3h-6.4v8.7h-13.8v-30.2h-6.5
v36.7h26.7V152.3z M326.2,141.5c0-2.2,2-4.8,7.4-4.8c3.3,0,6.2,1.2,9.6,4.3l4.8-4.5c-3.5-3.7-8.2-5.7-14.1-5.7
c-8,0-14.4,4.5-14.4,11.1c0,15.1,22.7,7,22.7,15.2c0,3.5-3.5,5.5-8.4,5.5c-4.1,0-7.8-2.2-10.4-4.8l-4.9,4.7
c4.5,4.9,10.2,6.8,15.1,6.8c8,0,15.5-4.7,15.5-12.3C348.9,141.5,326.2,149.8,326.2,141.5z M375.4,156.5c-3.1,0-5.7,2.6-5.7,5.9
c0,3.1,2.6,5.9,5.7,5.9s5.7-2.6,5.7-5.9S378.6,156.5,375.4,156.5z M407.2,156.5c-3.1,0-5.7,2.6-5.7,5.9c0,3.1,2.6,5.9,5.7,5.9
s5.7-2.6,5.7-5.9S410.4,156.5,407.2,156.5z M439.1,156.5c-3.1,0-5.7,2.6-5.7,5.9c0,3.1,2.6,5.9,5.7,5.9s5.7-2.6,5.7-5.9
S442.2,156.5,439.1,156.5z"/>
</g>
</svg>
