<?xml version="1.0" encoding="UTF-8"?>
<svg id="Layer_2" data-name="Layer 2" xmlns="http://www.w3.org/2000/svg" viewBox="0 0 321.8424693094 307.4639300729">
  <defs>
    <style>
      .cls-1 {
        fill: #231f20;
        fill-rule: evenodd;
      }
    </style>
  </defs>
  <g id="Layer_1-2" data-name="Layer 1">
    <g id="RITUALS">
      <path id="Fill-123" class="cls-1" d="M19.5559053874,31.5627246672h17.0832430492c8.5584419215,0,11.6097379114-5.2123069753,11.6097379114-10.0950941761,0-4.8894473579-3.05129599-10.1084064901-11.6097379114-10.1084064901h-17.0832430492v20.2035006662ZM61.5608964216,62.4537654873h-15.1892143629l-13.0597001208-19.527828725h-13.7560765505v19.527828725H7.4718162844v-19.527828725H0v-11.3632120951h7.4718162844V.0026640628h30.0689294238C51.1656191633.0026640628,60.3262512923,8.6265955294,60.3262512923,21.4676304911c0,8.600634917-5.6753498999,15.9331359144-14.4928379331,18.7722748989l15.7274830624,22.2138600972Z"/>
      <polygon id="Fill-125" class="cls-1" points="156.0065247007 62.6747707015 168.0838976452 62.6747707015 168.0838976452 .2203411986 156.0065247007 .2203411986 156.0065247007 62.6747707015"/>
      <polygon id="Fill-127" class="cls-1" points="302.4201230731 62.4544295029 290.349502288 62.4544295029 290.349502288 11.3565639382 272.0046854741 11.3565639382 272.0046854741 0 320.764939887 0 320.764939887 11.3565639382 302.4201230731 11.3565639382 302.4201230731 62.4544295029"/>
      <path id="Fill-128" class="cls-1" d="M35.174385878,189.1749472515c-15.9999774914,0-28.0706102768-11.5196477859-28.0706102768-26.7904400735v-36.9421035842h12.0773609442v34.4790854736c0,10.5377686202,6.5769471716,17.8969022461,15.9932493327,17.8969022461,9.4163101614,0,15.993257333-7.3591336259,15.993257333-17.8969022461v-34.4790854736h12.0773569441v36.9421035842c0,15.2707922876-12.0706287853,26.7904400735-28.0706142771,26.7904400735"/>
      <path id="Fill-129" class="cls-1" d="M153.3505260371,165.4859403509h17.4802044148l-8.6930050963-21.2652697168-8.7871993186,21.2652697168ZM192.9265797648,187.8928370024h-13.0125950094l-.0672815874-.1597637694-4.716559279-11.4830389222h-26.1799616704l-4.7804807871,11.6428026916h-12.9318571045l.1581157304-.3561364024,22.6778630445-51.3308590617h-14.2237115836v-10.7640939599h26.3481576386l.0672815874.1564356908,26.6610290203,62.2946537333Z"/>
      <polygon id="Fill-130" class="cls-1" points="320.095132084 187.8941810341 271.8260572598 187.8941810341 271.8260572598 125.4397475312 283.9034302042 125.4397475312 283.9034302042 176.5309529387 308.011038981 176.5309529387 308.011038981 161.742796038 320.095132084 161.742796038 320.095132084 187.8941810341"/>
      <path id="Fill-131" class="cls-1" d="M31.9545419115,307.4639300729c-10.1194107498,0-19.9629669912-4.1938269459-27.004169116-11.5130076293l-.181664286-.1897324764,9.1572640496-8.1379840015.1682079685.1830763194c5.0193384224,5.2788765458,11.7106642926,8.3010598489,18.358261131,8.3010598489,9.0630698273-.0965142771,14.6980427746-3.5514117893,14.6980427746-9.0166607323,0-5.6483252623-7.1656730615-6.6002517214-15.4650768714-7.698645636-11.098385847-1.4678106305-24.9082916675-3.3017738996-24.9082916675-18.0433377009,0-10.7741101963,11.2497774188-18.8920937259,26.1732255114-18.8920937259,10.3649965439,0,18.8090517666,3.2119157795,25.1067763503,9.5425611401l.188396445.1897324763-8.9520512079,7.934939211-.1682119687-.1664359267c-5.2851006927-5.1357371688-10.2977149566-7.3291649189-16.7703716676-7.3291649189-8.9150423348,0-12.9049444695,4.0839683541-12.9049444695,8.1279997659,0,5.6682937336,7.125304109,6.5569867006,15.3776108078,7.5788028086,11.1353907201,1.3846086674,24.9957577311,3.1020891884,24.9957577311,18.1631805284,0,13.619873337-14.3582667582,20.9657106492-27.8687615146,20.9657106492"/>
      <path id="Fill-132" class="cls-1" d="M180.0239873507,305.721488963c-5.6282447886,0-10.2035207342-4.5299628765-10.2035207342-10.0950861758,0-5.5717794564,4.5752759456-10.101742333,10.2035207342-10.101742333,5.628260789,0,10.2068968139,4.5299628766,10.2068968139,10.101742333,0,5.5651232993-4.5786360248,10.0950861758-10.2068968139,10.0950861758"/>
      <path id="Fill-133" class="cls-1" d="M245.8338280187,305.721488963c-5.6316208684,0-10.2102568932-4.5299628765-10.2102568932-10.0950861758,0-5.5717794564,4.5786360248-10.101742333,10.2102568932-10.101742333s10.210256893,4.5299628766,10.210256893,10.101742333c0,5.5651232993-4.5786360248,10.0950861758-10.210256893,10.0950861758"/>
      <path id="Fill-134" class="cls-1" d="M311.632244417,305.721488963c-5.6249007096,0-10.2035367345-4.5299628765-10.2035367345-10.0950861758,0-5.5717794564,4.5786360249-10.101742333,10.2035367345-10.101742333,5.6316208683,0,10.2102248924,4.5299628766,10.2102248924,10.101742333,0,5.5651232993-4.5786040241,10.0950861758-10.2102248924,10.0950861758"/>
    </g>
  </g>
</svg>