<?xml version="1.0" encoding="UTF-8"?>
<svg fill="none" viewBox="0 0 376.6 232.9" xmlns="http://www.w3.org/2000/svg"><path fill="currentColor" d="M22.1 105.7c-1.6-1.5-3.7-2.4-5.8-2.4-2.4 0-3.9 1.2-3.9 2.9 0 .9.4 2.3 3.2 3.2l2.4.8c2.8.9 7 2.3 9 5.1 1.2 1.7 1.8 3.8 1.8 5.9.1 3.4-1.4 6.7-4 9-2.9 2.6-6.3 3.8-10.7 3.8-5.2.1-10.3-2-13.8-5.9l5.3-6.1c2 2.3 4.9 4.1 7.9 4.1 2.8 0 4.9-1.4 4.9-3.9 0-2.2-1.8-3.1-3.1-3.6l-2.3-.8c-2.6-.9-5.5-2.1-7.6-4.3-1.8-1.8-2.8-4.3-2.7-6.8 0-3.1 1.3-6.1 3.7-8.1 2.8-2.2 6.4-2.5 9.3-2.5 4.1-.1 8.1 1.2 11.3 3.8l-4.9 5.8zM66.7 97.2h10v35.6h-10v-4.6c-2.4 3.7-6.5 5.9-10.9 5.8-10.9 0-18.2-8.6-18.2-19s7.2-18.9 17.7-18.9c2.7 0 8.1.5 11.4 5.8v-4.7zM47.9 115c.1 5.5 4.5 9.8 10 9.7s9.8-4.5 9.7-10c-.1-5.4-4.5-9.7-9.9-9.7-5.4-.1-9.8 4.2-9.9 9.6.1.2.1.3.1.4zM117.4 97.2h10v33.9c0 5.4-.5 11.1-4.9 15.5-2.5 2.5-6.7 5-14.1 5-6.9 0-11-2.1-13.3-4.1-2.8-2.4-4.9-6.6-5.7-10.6h10.9c.4 1.6 1.2 3.1 2.5 4.3 2 1.8 4.7 1.9 6.1 1.9 2.2.1 4.4-.7 6.1-2.2 2.3-2.2 2.5-5 2.5-7.9v-5c-2.3 3.8-6.5 6.1-10.9 5.9-4.6.1-9.1-1.6-12.3-4.9-3.7-3.8-5.8-8.9-5.7-14.1-.1-5.3 1.9-10.4 5.5-14.2 3.3-3.1 7.7-4.8 12.2-4.8 6.7 0 9.8 3.6 11.2 5.8l-.1-4.5zm-15.3 10.2c-2.1 1.9-3.3 4.7-3.2 7.6-.1 2.6.9 5.1 2.6 7 1.9 2 4.5 3.2 7.2 3.1 2.4 0 4.8-.9 6.7-2.5 2.1-2 3.2-4.8 3.2-7.6 0-2.7-1-5.2-2.9-7.2-1.8-1.9-4.4-3-7-2.9-2.4 0-4.8.9-6.6 2.5zM167.1 97.2h10v35.6h-10v-4.6c-2.4 3.7-6.5 5.9-10.9 5.8-10.9 0-18.2-8.6-18.2-19s7.2-18.9 17.7-18.9c2.7 0 8.1.5 11.4 5.8v-4.7zM148.4 115c.1 5.5 4.5 9.8 10 9.7s9.8-4.5 9.7-10c-.1-5.4-4.5-9.7-9.9-9.7-5.4-.1-9.8 4.2-9.9 9.6 0 .2 0 .3.1.4zM270 101.1c7.7 7.3 8 19.4.8 27.1-.2.3-.5.5-.8.8-3 2.8-7.6 5-14.4 5s-11.4-2.2-14.4-5c-7.7-7.3-8-19.4-.8-27.1.2-.3.5-.5.8-.8 3-2.8 7.6-5 14.4-5s11.4 2.2 14.4 5zm-4.4 14c0-5.5-4.5-10-10-10s-10 4.5-10 10 4.5 10 10 10 10-4.4 10-9.9v-.1zM287.4 97.2h10v5.3c1-2 2.5-3.7 4.4-4.9 1.8-1.1 3.8-1.6 5.9-1.6 1.5 0 2.9.3 4.3.8l-1.3 9.4c-1.4-.9-3-1.4-4.7-1.3-2.5-.1-5 .9-6.7 2.9-1.9 2.4-2 5.4-2 7.9v17.1h-10l.1-35.6zM321.3 97.2h10v4c2.5-3.3 6.5-5.2 10.6-5.2 7.5 0 10.4 4.7 11.3 6.5 2.4-4.1 6.7-6.5 11.4-6.5 5.5 0 8.2 2.6 9.6 4.4 2.3 3 2.5 6.1 2.5 10v22.4h-10v-19.4c0-4.2-.9-6.1-1.6-7-1-1.2-2.5-1.9-4.1-1.8-2.3-.1-4.4 1.1-5.5 3.1-1.3 2.1-1.4 5-1.4 6.9v18.2h-10v-19.4c0-4.2-.9-6.1-1.6-7-1-1.2-2.5-1.9-4.1-1.8-2.3-.1-4.4 1.1-5.5 3.1-1.3 2.1-1.4 5-1.4 6.9v18.2h-10l-.2-35.6z"></path><path fill="currentColor" d="M256.4 25.2C254.4 10.6 242.5 0 228.2 0c-15.6 0-28.3 12.7-28.3 28.3v68.8h-10.5v10.7h10.5v95.1c0 10.6-8.6 19.2-19.3 19.3-9.9 0-17.8-7.2-19.2-17.6-.3-2-.5-4-.5-6h-10.7c0 2.5.3 5.1.6 7.6 2.1 15.5 14.7 26.8 29.8 26.8 16.6 0 30-13.4 30-30v-95.1H227V97.1h-16.4V28.3c0-9.7 7.9-17.6 17.6-17.6 9 0 16.2 6.6 17.5 16.1.3 1.8.4 3.7.5 5.5H257c-.1-2.3-.3-4.7-.6-7.1z"></path></svg>