<?xml version="1.0" encoding="utf-8"?>
<!-- Generator: Adobe Illustrator 24.0.3, SVG Export Plug-In . SVG Version: 6.00 Build 0)  -->
<svg version="1.1" id="Layer_1" xmlns="http://www.w3.org/2000/svg" xmlns:xlink="http://www.w3.org/1999/xlink" x="0px" y="0px"
	 viewBox="0 0 32.9 32.9" style="enable-background:new 0 0 32.9 32.9;" xml:space="preserve">
<path d="M20.5,15.8c0.4,0,0.6,0.3,0.6,0.6v0c0,0.4-0.3,0.6-0.6,0.6c-0.4,0-0.6-0.3-0.6-0.6C19.9,16.1,20.2,15.8,20.5,15.8 M7.7,15.8
	c-0.3,0-0.6,0.3-0.6,0.6c0,0,0,0,0,0c0,0.4,0.3,0.6,0.6,0.6c0.4,0,0.6-0.3,0.6-0.6C8.4,16.1,8.1,15.8,7.7,15.8 M11,15.8
	c-0.2,0-0.3,0.1-0.4,0.2c-0.1,0.1-0.2,0.3-0.2,0.5c0,0.2,0.1,0.3,0.2,0.5c0.1,0.1,0.3,0.2,0.5,0.2c0.2,0,0.3-0.1,0.4-0.2
	c0.1-0.1,0.2-0.3,0.2-0.5c0-0.2-0.1-0.3-0.2-0.5C11.4,15.9,11.2,15.8,11,15.8 M28.4,17.6v-1.4c0-0.3,0-0.5-0.2-0.6
	c-0.1-0.1-0.3-0.3-0.6-0.3c-0.3,0-0.6,0.2-0.7,0.4c-0.1-0.1-0.2-0.4-0.7-0.4c-0.3,0-0.5,0.1-0.7,0.3v-0.3h-0.6l0,2.3h0.6v-1.2
	c0-0.1,0-0.3,0.1-0.4c0.1-0.1,0.2-0.2,0.4-0.2c0.1,0,0.2,0,0.3,0.1c0,0.1,0.1,0.2,0.1,0.5v1.3h0.6v-1.2c0-0.1,0-0.3,0.1-0.4
	c0.1-0.1,0.2-0.2,0.4-0.2c0.1,0,0.2,0,0.3,0.1c0,0.1,0.1,0.2,0.1,0.5v1.3H28.4z M24.2,15.3c-0.1,0-0.2-0.1-0.3-0.1
	c-0.1,0-0.3,0-0.4,0.1c-0.1,0.1-0.2,0.2-0.3,0.3v-0.3h-0.6l0,2.3h0.6v-1.1c0-0.2,0-0.4,0.1-0.5c0.1-0.1,0.3-0.2,0.4-0.2
	c0.1,0,0.2,0,0.3,0.1L24.2,15.3z M21.5,17.3c0.5-0.5,0.4-1.3-0.1-1.8c-0.2-0.2-0.5-0.3-0.9-0.3s-0.7,0.1-0.9,0.3c0,0,0,0-0.1,0.1
	c-0.5,0.5-0.4,1.3,0.1,1.8c0.2,0.2,0.5,0.3,0.9,0.3S21.3,17.5,21.5,17.3C21.5,17.3,21.5,17.3,21.5,17.3 M17.6,15.3v-4.5
	c0-0.6,0.5-1.1,1.1-1.1c0.6,0,1,0.4,1.1,1c0,0.1,0,0.2,0,0.4h0.7c0-0.1,0-0.3,0-0.5C20.4,9.7,19.7,9,18.8,9c-1,0-1.8,0.8-1.8,1.8
	v4.5h-0.7V16h0.7v6.2c0,0.7-0.6,1.2-1.2,1.2c-0.6,0-1.2-0.5-1.2-1.1c0-0.1,0-0.3,0-0.4h-0.7c0,0.2,0,0.3,0,0.5c0.1,1,1,1.7,1.9,1.7
	c1.1,0,1.9-0.9,1.9-1.9V16h1.1v-0.7H17.6z M12.9,16.5c0,0.7,0.5,1.2,1.2,1.2c0.3,0,0.5-0.1,0.7-0.4v0.3h0.6v-2.3h-0.6v0.3
	c-0.2-0.3-0.6-0.4-0.7-0.4C13.4,15.2,12.9,15.8,12.9,16.5 M12.2,15.3h-0.6l0,0.3c-0.1-0.1-0.3-0.4-0.7-0.4c-0.3,0-0.6,0.1-0.8,0.3
	c-0.2,0.2-0.4,0.6-0.4,0.9c0,0.3,0.1,0.7,0.4,0.9c0.2,0.2,0.5,0.3,0.8,0.3c0.3,0,0.6-0.1,0.7-0.4v0.3c0,0.2,0,0.4-0.2,0.5
	c-0.1,0.1-0.3,0.1-0.4,0.1c-0.1,0-0.3,0-0.4-0.1c-0.1-0.1-0.1-0.2-0.2-0.3H9.8c0.1,0.3,0.2,0.5,0.4,0.7c0.1,0.1,0.4,0.3,0.9,0.3
	c0.5,0,0.8-0.2,0.9-0.3c0.3-0.3,0.3-0.7,0.3-1V15.3z M9,15.3H8.3v0.3c-0.2-0.3-0.6-0.4-0.7-0.4c-0.7,0-1.1,0.5-1.1,1.2
	s0.5,1.2,1.2,1.2c0.3,0,0.6-0.1,0.7-0.4v0.3H9V15.3z M5.6,17.4c0.2-0.1,0.3-0.4,0.3-0.6c0-0.1,0-0.3-0.1-0.4
	c-0.1-0.2-0.4-0.3-0.6-0.3L5,16.1c-0.2-0.1-0.2-0.1-0.2-0.2c0-0.1,0.1-0.2,0.3-0.2c0.1,0,0.3,0.1,0.4,0.2l0.3-0.4
	c-0.2-0.2-0.5-0.3-0.7-0.2c-0.2,0-0.4,0-0.6,0.2c-0.2,0.1-0.2,0.3-0.2,0.5c0,0.2,0.1,0.3,0.2,0.4c0.1,0.1,0.3,0.2,0.5,0.3L5,16.7
	c0.1,0,0.2,0.1,0.2,0.2c0,0.2-0.1,0.3-0.3,0.3c-0.2,0-0.4-0.1-0.5-0.3L4,17.3c0.2,0.3,0.6,0.4,0.9,0.4C5.2,17.7,5.4,17.6,5.6,17.4
	 M16.5,2.1c8,0,14.4,6.4,14.4,14.4c0,8-6.4,14.4-14.4,14.4S2.1,24.4,2.1,16.5C2.1,8.5,8.5,2.1,16.5,2.1 M14.9,16.4
	c0-0.3-0.3-0.6-0.6-0.6c-0.3,0-0.6,0.3-0.6,0.6c0,0,0,0,0,0c0,0.4,0.3,0.6,0.6,0.6C14.6,17.1,14.9,16.8,14.9,16.4"/>
</svg>
