<?xml version="1.0" encoding="UTF-8"?>
<svg id="logoscx" data-name="logoscx" xmlns="http://www.w3.org/2000/svg" version="1.1" viewBox="0 0 5554.08 2835.36">
  <defs>
    <style>
      .cls-1 {
        fill: #444444;
        stroke-width: 0px;
      }
    </style>
  </defs>
  <path class="cls-1" d="M936.41,1423.97c-393.86,0-620.43-129.17-705.13-383.26L2.58,1089.4c108,349.39,404.45,516.67,929.61,516.67s762.3-165.17,762.3-470.09c0-258.33-165.17-379.02-546.33-419.26l-463.74-46.58c-273.15-27.53-366.33-84.71-366.33-235.05,0-165.16,179.99-254.1,510.32-254.1,362.12,0,550.57,118.58,637.38,338.8l220.22-63.53C1571.67,155.58,1304.85,1,834.76,1S87.3,164.05,87.3,447.8c0,247.75,160.93,379.03,506.08,410.79l484.91,44.47c275.28,25.41,385.39,97.4,385.39,254.1,0,184.21-167.29,266.8-527.27,266.8Z"/>
  <path class="cls-1" d="M3530.36,1049.17c-99.54,243.52-323.97,372.67-671.25,372.67-448.92,0-747.49-251.96-747.49-618.3s283.75-618.32,741.13-618.32c355.74,0,590.77,143.99,669.12,406.56l214.2-91.07c-21.96-59.85-50.67-114.82-85.76-164.64C3498.25,120.18,3226.25,1,2863.33,1c-590.77,0-984.63,323.99-984.63,802.54s374.8,802.53,969.82,802.53c467.98,0,777.14-182.1,904.18-518.78l-222.33-38.12Z"/>
  <g>
    <path class="cls-1" d="M5355.08,1921.66c-111.6,0-184.62,57.66-184.62,157.22s73.02,157.22,184.62,157.22,184.18-57.66,184.18-157.22-72.59-157.22-184.18-157.22ZM5355.08,2216.19c-96.26,0-161.37-51.85-161.37-137.31s65.12-137.32,161.37-137.32,161.36,51.87,161.36,137.32-65.54,137.31-161.36,137.31Z"/>
    <path class="cls-1" d="M5453.4,2043.63c0-32.36-22.42-50.62-65.96-50.62h-110.35v168.43h31.93v-66.38h67.63l45.62,66.38h37.34l-49.77-68.46c27.8-6.63,43.56-24.47,43.56-49.35ZM5309.02,2071.41v-54.33h74.26c26.96,0,37.76,8.71,37.76,26.55s-11.21,27.78-37.76,27.78h-74.26Z"/>
  </g>
  <rect class="cls-1" x="12.39" y="1959.55" width="36.91" height="345.73"/>
  <polygon class="cls-1" points="184.35 1960.6 183.66 1959.55 143.62 1959.55 143.62 2305.28 180.48 2305.28 180.48 2011.74 373.26 2304.23 373.96 2305.28 414.97 2305.28 414.97 1959.55 378.11 1959.55 378.11 2253.56 184.35 1960.6"/>
  <polygon class="cls-1" points="538.19 1960.6 537.5 1959.55 497.45 1959.55 497.45 2305.28 534.32 2305.28 534.32 2011.76 727.1 2304.23 727.8 2305.28 768.79 2305.28 768.79 1959.55 731.94 1959.55 731.94 2253.54 538.19 1960.6"/>
  <path class="cls-1" d="M1120.68,2260.6c13.42-16.45,23.69-35.84,30.54-57.62,6.82-21.88,10.28-45.47,10.28-70.09s-3.46-48.84-10.28-71.06c-6.85-22.07-17.2-41.61-30.78-58.1-13.59-16.46-30.75-29.58-51.01-38.98-20.24-9.42-44.1-14.19-70.89-14.19s-48.96,4.86-68.73,14.45c-19.8,9.6-36.64,22.78-50.06,39.2-13.34,16.36-23.6,35.83-30.48,57.86-6.83,21.87-10.29,45.69-10.29,70.82s3.38,48.39,10.05,70.08c6.66,21.79,16.84,41.19,30.26,57.64,13.53,16.53,30.52,29.72,50.53,39.2,20.16,9.61,43.77,14.48,70.16,14.48s50.02-4.87,70.16-14.48c20.08-9.52,37.09-22.7,50.54-39.21ZM1056.45,2269.84c-15.56,8.16-34.41,12.31-56.01,12.31s-40.94-4.06-56.47-12.08c-15.53-7.97-28.49-18.89-38.52-32.44-10.01-13.56-17.52-29.56-22.34-47.56-4.83-18.07-7.28-37.3-7.28-57.18s2.45-38.64,7.28-56.71c4.83-18.02,12.34-34.11,22.34-47.8,10.08-13.74,23.04-24.91,38.54-33.18,15.53-8.29,34.2-12.49,55.53-12.49,19.15,0,36.68,3.44,52.12,10.2,15.38,6.76,28.63,16.74,39.39,29.66,10.84,13.01,19.22,28.93,24.9,47.32,5.74,18.46,8.64,39.66,8.64,63,0,19.55-2.43,38.63-7.23,56.71-4.8,17.96-12.34,33.94-22.38,47.51-9.97,13.54-22.94,24.55-38.52,32.72Z"/>
  <polygon class="cls-1" points="1442.16 1959.55 1341.51 2257.78 1240.39 1959.55 1201.82 1959.55 1321.31 2303.71 1321.85 2305.28 1360.71 2305.28 1479.66 1962.64 1480.74 1959.55 1442.16 1959.55"/>
  <path class="cls-1" d="M1677.11,1959.55h-39.66l-135.89,345.73h38.15l40.3-107.05h152.13l39.27,107.05h38.2l-131.95-344.23-.57-1.5ZM1592.63,2166.08l63.44-170.05,63.44,170.05h-126.88Z"/>
  <polygon class="cls-1" points="1830.9 1991.69 1938.92 1991.69 1938.92 2305.28 1975.79 2305.28 1975.79 1991.69 2083.8 1991.69 2083.8 1959.55 1830.9 1959.55 1830.9 1991.69"/>
  <rect class="cls-1" x="2148.24" y="1959.55" width="36.91" height="345.73"/>
  <polygon class="cls-1" points="2389.32 2257.78 2288.2 1959.55 2249.62 1959.55 2369.12 2303.71 2369.66 2305.28 2408.51 2305.28 2527.47 1962.64 2528.55 1959.55 2489.97 1959.55 2389.32 2257.78"/>
  <polygon class="cls-1" points="2618.6 2142.31 2794.34 2142.31 2794.34 2110.2 2618.6 2110.2 2618.6 1991.69 2813.25 1991.69 2813.25 1959.55 2581.69 1959.55 2581.69 2305.28 2818.02 2305.28 2818.02 2273.13 2618.6 2273.13 2618.6 2142.31"/>
  <path class="cls-1" d="M272.52,2575.29c-4.29-13.18-10.19-25.95-17.53-37.93-7.39-12.03-17-22.37-28.58-30.74-8.05-5.8-16.43-10.5-24.89-13.99-8.44-3.5-17.26-6.17-26.26-7.96-9.06-1.75-18.25-2.87-27.29-3.31-8.96-.5-18.42-.76-28.11-.76H1v345.74h118.86c11.37,0,22.78-.57,33.89-1.68,11.21-1.13,22.11-3.22,32.4-6.24,10.44-3.06,20.49-7.35,29.88-12.75,9.43-5.43,18.31-12.76,26.36-21.76,8.03-8.68,14.77-18.33,20.04-28.7,5.31-10.52,9.58-21.51,12.69-32.67,3.22-11.47,5.54-23.14,6.91-34.67,1.46-11.86,2.2-23.6,2.2-34.89s-.9-23.99-2.65-37.45c-1.69-13.32-4.74-26.87-9.06-40.25ZM244.76,2689.17c-1.74,12.58-4.74,24.6-8.89,35.73-4.2,11.36-9.91,21.92-16.94,31.38-7.06,9.46-16.19,17.04-27.2,22.55-12.92,6.76-25.8,11.08-38.27,12.8-12.76,1.7-26.45,2.56-40.68,2.56H37.91v-281.44h74.87c14.07,0,28.16.79,41.86,2.33,13.58,1.58,25.41,5.01,35.19,10.2,11.65,6.1,21.28,13.95,28.62,23.31,7.42,9.42,13.36,19.88,17.65,31.13,4.35,11.28,7.33,23.36,8.88,35.9,1.56,12.72,2.35,25.29,2.35,37.37,0,11.37-.87,23.55-2.57,36.18Z"/>
  <polygon class="cls-1" points="391.75 2663.37 567.49 2663.37 567.49 2631.27 391.75 2631.27 391.75 2512.75 586.4 2512.75 586.4 2480.6 354.84 2480.6 354.84 2826.34 591.17 2826.34 591.17 2794.19 391.75 2794.19 391.75 2663.37"/>
  <path class="cls-1" d="M859.8,2663.94c-9.38-7.09-20.2-12.8-32.15-16.95-11.97-4.11-24.39-7.72-36.96-10.7-12.64-3.02-25.05-5.84-37.23-8.52-12-2.65-23.09-6.13-33-10.34-9.78-4.11-18.15-9.45-24.88-15.86-6.52-6.22-10.74-14.7-12.55-25.24-1.53-8.38-1.08-16.95,1.34-25.48,2.44-8.45,6.88-16.27,13.21-23.22,6.41-6.98,15.14-12.76,25.96-17.18,10.82-4.43,24.47-6.67,40.57-6.67,10.54,0,20.85,1.4,30.64,4.16,9.73,2.73,18.55,7.05,26.19,12.84,7.59,5.78,13.66,13.31,18.05,22.38,4.39,9.11,6.62,20.08,6.62,32.62v2.33h35.48v-2.33c0-14.11-2.45-27.62-7.29-40.16-4.82-12.55-12.16-23.74-21.83-33.26-9.71-9.52-22.01-17.1-36.57-22.54-14.6-5.44-31.86-8.2-51.28-8.2s-36.32,2.58-50.97,7.67c-14.82,5.18-27.29,12.19-37.04,20.86-9.81,8.69-17.34,18.84-22.37,30.17-5.02,11.32-7.56,23.11-7.56,35.04,0,17.03,3.13,31.36,9.31,42.57,6.14,11.11,14.25,20.38,24.13,27.55,9.75,7.01,21.12,12.69,33.82,16.87,12.43,4.13,25.41,7.73,38.55,10.7,12.62,2.9,25.51,6.01,38.35,9.24,12.1,3.05,23.07,7.2,32.57,12.32,9.3,5.06,16.93,11.61,22.69,19.5,5.68,7.74,8.56,18.1,8.56,30.81,0,9.12-1.63,17.93-4.84,26.18-3.13,8.14-8.12,15.4-14.81,21.62-6.68,6.24-15.47,11.25-26.13,14.9-10.76,3.69-23.73,5.56-38.57,5.56-12.64,0-24.71-1.49-35.9-4.45-10.93-2.86-20.78-7.57-29.26-14.03-8.33-6.34-15.29-14.78-20.65-25.05-5.37-10.32-8.71-23.01-9.93-37.73l-.17-2.14h-35.76v2.33c0,18.83,3.19,35.49,9.46,49.53,6.25,13.96,15.14,25.88,26.44,35.43,11.25,9.46,24.75,16.61,40.15,21.26,15.36,4.65,32.16,7,49.95,7,39.8,0,71.21-8.95,93.36-26.61,22.26-17.7,33.54-43.03,33.54-75.24,0-16.66-2.87-30.79-8.54-42.04-5.72-11.19-13.34-20.46-22.68-27.54Z"/>
  <rect class="cls-1" x="968.78" y="2480.6" width="36.91" height="345.74"/>
  <path class="cls-1" d="M1245.92,2677.61h115.03c-.41,12.14-1.57,23.62-3.46,34.18-1.98,11.41-5.65,22.51-10.87,32.96-5.57,10.82-12.29,20.03-19.95,27.37-7.73,7.42-16.16,13.5-25.04,18.07-9.02,4.66-18.37,8-27.81,9.97-9.52,2.02-18.91,3.04-27.92,3.04-19.15,0-36.42-3.75-51.33-11.14-14.95-7.4-27.77-17.56-38.08-30.18-10.32-12.66-18.31-27.55-23.74-44.26-5.42-16.74-8.16-34.66-8.16-53.27,0-23.72,2.45-45.76,7.29-65.5,4.82-19.7,12.41-36.81,22.55-50.85,10.26-14.06,23.36-25.04,38.97-32.63,15.67-7.7,34.76-11.6,56.76-11.6,12.35,0,24.39,1.79,35.75,5.29,11.41,3.56,21.86,8.72,31.07,15.3,9.22,6.63,17.25,14.96,23.85,24.76,6.63,9.95,11.37,21.15,14.08,33.3l.41,1.82h37.91l-.58-2.81c-3.86-18.54-10.18-34.82-18.79-48.38-8.64-13.56-19.45-25.08-32.1-34.26-12.67-9.11-27.11-16-42.92-20.48-15.66-4.45-32.84-6.71-51.05-6.71-27.06,0-50.92,4.7-70.89,13.96-20.04,9.31-36.89,22.2-50.07,38.29-13.25,16.1-23.19,35.34-29.55,57.17-6.35,21.7-9.58,45.43-9.58,70.56,0,30.39,3.78,57.39,11.21,80.29,7.54,22.96,18.14,42.3,31.52,57.44,13.45,15.19,29.67,26.79,48.23,34.46,18.5,7.67,38.88,11.57,60.56,11.57,16.73,0,32.05-1.63,45.54-4.84,13.43-3.18,25.45-7.8,35.71-13.75,10.21-5.91,19.39-13.22,27.27-21.71,5.98-6.43,11.54-13.55,16.6-21.22v52.51h32.14v-180.87h-150.57v32.14Z"/>
  <polygon class="cls-1" points="1714.89 2774.6 1521.14 2481.64 1520.44 2480.6 1480.4 2480.6 1480.4 2826.34 1517.27 2826.34 1517.27 2532.82 1710.05 2825.29 1710.74 2826.34 1751.75 2826.34 1751.75 2480.6 1714.89 2480.6 1714.89 2774.6"/>
  <polygon class="cls-1" points="5492.68 51.63 5196.23 51.63 4692.58 547.15 4838.16 692.78 5492.68 51.63"/>
  <polygon class="cls-1" points="4849.51 847.37 4703.94 992.94 5253.4 1555.05 5539.26 1555.05 4849.51 847.37"/>
  <polygon class="cls-1" points="4044.43 51.82 3747.98 51.82 4484.84 773.99 3701.4 1555.25 3987.26 1555.25 4754.8 774.75 4044.43 51.82"/>
</svg>