<?xml version="1.0" encoding="utf-8"?>
<!-- Generator: Adobe Illustrator 27.5.0, SVG Export Plug-In . SVG Version: 6.00 Build 0)  -->
<svg version="1.1" id="Lager_1" xmlns="http://www.w3.org/2000/svg" xmlns:xlink="http://www.w3.org/1999/xlink" x="0px" y="0px"
	 viewBox="130 100 340 100"  xml:space="preserve">
<style type="text/css">
	.st0{fill:#201E22;}
</style>
<path class="st0" d="M305,141.5c0-12.4-5.8-19-16.8-19c-11.1,0-16.9,6.6-16.9,19v1.6c0,12.7,6.3,19.1,18.6,19.1
	c5.3,0,10.2-0.8,14.2-2.3l0.3-0.1l-2.3-7.2l0-0.1l-0.3,0.1c-2.8,1.1-7.4,1.9-11.8,1.9c-6.6,0-10.4-3.3-10.4-9l25.5,0V141.5z
	 M279.5,139.1c0-5.8,3.1-8.9,8.6-8.9c5.5,0,8.6,3.2,8.6,8.9v0.1L279.5,139.1L279.5,139.1z"/>
<polygon class="st0" points="268.9,122.7 268.9,131.5 254.2,131.5 254.2,162.3 249.9,164.7 245.3,162.2 245.3,131.5 230.5,131.5 
	230.5,122.7 "/>
<g>
	<path class="st0" d="M341.8,161.3h-8.5v-22.9c0-6.4-3.2-7.7-8.1-7.7c-3.2,0-4.7,0.1-6.7,0.5v30h-8.5v-36.6l0.5-0.1
		c3.7-1.2,9.4-1.9,15.1-1.9c10.4,0,16.1,5.8,16.1,16.3V161.3z"/>
</g>
<g>
	<path class="st0" d="M453.5,161.3h-8.5v-22.9c0-6.4-3.2-7.7-8.1-7.7c-3.2,0-4.7,0.1-6.7,0.5v30h-8.5v-36.6l0.5-0.1
		c3.7-1.2,9.4-1.9,15.1-1.9c10.4,0,16.1,5.8,16.1,16.3V161.3z"/>
</g>
<g>
	<path class="st0" d="M362.6,138.6c-4.1-0.9-7.3-1.7-7.3-4.6c0-1.1,0.6-2,1.8-2.6c1.6-0.8,4.1-1.1,6.9-0.8c2.8,0.4,5.5,1.3,7.3,2.7
		l0.5,0.4l2.5-7.6l-0.3-0.2c-2.7-1.8-6.4-3-10.4-3.3c-4.1-0.3-8,0.4-10.9,2c-3.8,2-5.8,5.3-5.8,9.5c0,9,7,10.6,12.6,11.9
		c4,0.9,7.2,1.7,7.2,4.6c0,0.9-0.5,1.6-1.5,2.2c-3.4,2-12,1.5-16.3-1l-0.5-0.3L346,159l0.3,0.2c2.6,1.6,6.7,2.6,11,2.8
		c0.4,0,0.9,0,1.3,0c4.3,0,8.1-0.9,10.9-2.5c3.7-2.1,5.6-5.3,5.6-9.4C375.2,141.4,368.2,139.8,362.6,138.6z"/>
</g>
<path class="st0" d="M417.9,142c0-2.1-0.3-4.1-0.9-6h0.1l-0.3-0.9c-0.7-1.8-1.6-3.4-2.8-5c-2.2-2.9-5.1-5.1-8.5-6.4l-0.9-0.3v0.1
	c-2.1-0.7-4.2-1.1-6.4-1.1c-10.9,0-19.8,8.8-19.8,19.6c0,10.8,8.9,19.6,19.8,19.6c4.1,0,8-1.2,11.3-3.5c3.2-2.2,5.7-5.3,7.2-9
	l0.3-0.9h-0.1C417.5,146.3,417.9,144.2,417.9,142z M392,132l0.3-0.2c1.8-1,3.8-1.5,5.8-1.5c4.1,0,7.9,2.1,10.1,5.5l0.2,0.3l0.1,0.1
	c1,1.8,1.6,3.8,1.6,5.9c0,6.5-5.3,11.8-11.8,11.8c-6.5,0-11.8-5.3-11.8-11.8C386.5,137.9,388.5,134.2,392,132z"/>
<g>
	<polygon class="st0" points="152.3,132.6 167.5,132.6 167.5,164.8 172.8,167.1 178.3,164.8 178.3,132.6 193.5,132.6 193.5,121.8 
		152.3,121.8 	"/>
	<path class="st0" d="M210.1,144.4l0-33.6c-8.4-4.4-19.6-7.3-32.1-7.9l-7.9-0.1c-13.4,0.3-25.4,3.1-34.4,7.6l0.1,33.9
		c0,0.8-0.2,18.9,14,28.5l0.2,0.1c4.9,3,21.9,10.2,22.6,10.5h0.8c0.7-0.3,17.6-7.4,22.6-10.5l0.2-0.1
		C210.3,163.2,210.3,144.6,210.1,144.4z M192.2,166.9c-3.7,2.2-15.4,7.3-18.9,8.8l-0.3,0.1l-0.3-0.1c-3.5-1.5-15.2-6.6-18.9-8.8
		c-10.8-7.4-10.7-22.2-10.7-22.4v-29.3l0.4-0.2c4.9-1.9,10.5-3.3,16.5-4.1c0.1,0,13.6-1.5,28.8,0.6c4.9,0.9,9.5,2.2,13.5,3.8
		l0.4,0.2l0,29C202.9,145,202.8,159.6,192.2,166.9z"/>
</g>
<g>
	<path class="st0" d="M302.3,188.2h6v2.3h-8.4v-11.8h8.4v2.3h-6v2.2h5.3v2.3h-5.3V188.2z"/>
	<path class="st0" d="M314.2,187.4c1.9,1.4,4.9,1.4,4.9-0.3c0-2.1-5.5-0.8-5.5-5.1c0-3.8,5.1-4.3,7.5-2.5l-0.7,2.2
		c-1.8-1.4-4.4-1.3-4.4,0.1c0,2.3,5.5,0.9,5.5,5c0,4.2-5.5,4.5-8.1,2.7L314.2,187.4z"/>
	<path class="st0" d="M325.7,178.7h9.4v2.3h-3.5v9.5h-2.4v-9.5h-3.5V178.7z"/>
	<path class="st0" d="M338.7,187.8c0.8,0,1.4,0.6,1.4,1.4c0,0.8-0.6,1.4-1.4,1.4c-0.8,0-1.4-0.6-1.4-1.4
		C337.3,188.5,337.9,187.8,338.7,187.8z"/>
	<path class="st0" d="M350.5,178.7h4.9v11.8h-2.4v-9.5h-2.4V178.7z"/>
	<path class="st0" d="M361.1,182.4c0-2.7,1.8-3.9,3.9-3.9c3.8,0,4.8,2.6,4.8,5.8c0,4.2-1.4,6.3-4.9,6.3c-1.5,0-2.6-0.4-3.6-1.1
		l0.7-2.2c0.8,0.6,1.9,1,3,1c1.7,0,2.3-1.1,2.3-2.7c-0.7,0.3-1.5,0.3-2.1,0.3C362.9,186,361.1,185,361.1,182.4z M367.2,183.5
		c0-1.7-0.4-2.8-2.2-2.8c-0.7,0-1.5,0.5-1.5,1.6c0,1.3,0.9,1.6,1.7,1.6C365.8,184,366.5,183.9,367.2,183.5z"/>
	<path class="st0" d="M374.5,178.7h7.5v2.3h-5.1v1.9h0.7c3.1,0,4.8,1.6,4.8,3.9c0,2.6-2.1,3.9-4.6,3.9c-1.6,0-2.5-0.2-3.8-1.1
		l0.7-2.2c0.9,0.7,1.8,1,3,1c1.6,0,2.2-0.6,2.2-1.5c0-1.4-1-1.7-3.1-1.7h-2.3V178.7z"/>
	<path class="st0" d="M387.3,178.7h4.9v11.8h-2.4v-9.5h-2.4V178.7z"/>
</g>
<path class="st0" d="M462.5,121.8c3.3,0,5.9,2.6,5.9,5.9c0,3.3-2.6,5.9-5.9,5.9c-3.3,0-5.9-2.6-5.9-5.9
	C456.6,124.4,459.3,121.8,462.5,121.8z M462.5,132.6c2.7,0,4.9-2.2,4.9-4.9c0-2.7-2.2-5-4.9-5c-2.7,0-4.9,2.2-4.9,5
	C457.6,130.4,459.8,132.6,462.5,132.6z M462.3,128.4h-0.9v2.6H460v-6.5h2.5c1.7,0,2.5,0.8,2.5,1.9c0,0.9-0.5,1.6-1.4,1.9l1.5,2.7
	h-1.5L462.3,128.4z M461.4,125.7v1.5h1.2c0.9,0,1.2-0.3,1.2-0.8c0-0.5-0.3-0.8-1.2-0.8H461.4z"/>
</svg>
